<svg xmlns="http://www.w3.org/2000/svg" version="1.1" xmlns:xlink="http://www.w3.org/1999/xlink" xmlns:svgjs="http://svgjs.com/svgjs" width="1442" height="562" preserveAspectRatio="none" viewBox="0 0 1442 562"><g mask="url(&quot;#SvgjsMask1032&quot;)" fill="none"><rect width="1442" height="562" x="0" y="0" fill="#0e2a47"></rect><circle r="5.15" cx="977" cy="513.43" filter="url(#SvgjsFilter1033)" fill="rgba(112, 11, 151, 0.41)"></circle><circle r="8.52" cx="274.13" cy="16.189999999999998" filter="url(#SvgjsFilter1033)" fill="rgba(112, 11, 151, 0.41)"></circle><circle r="9.135" cx="1369.085" cy="314.355" filter="url(#SvgjsFilter1033)" fill="rgba(112, 11, 151, 0.41)"></circle><circle r="7.5" cx="1408.41" cy="378.32" filter="url(#SvgjsFilter1033)" fill="rgba(112, 11, 151, 0.41)"></circle><circle r="4.975" cx="673.845" cy="391.02500000000003" filter="url(#SvgjsFilter1033)" fill="rgba(112, 11, 151, 0.41)"></circle><circle r="4.915" cx="1059.055" cy="35.105000000000004" filter="url(#SvgjsFilter1033)" fill="rgba(112, 11, 151, 0.41)"></circle><circle r="8.575" cx="1319.065" cy="178.565" filter="url(#SvgjsFilter1033)" fill="rgba(112, 11, 151, 0.41)"></circle><circle r="8.4" cx="72.12" cy="333.34999999999997" filter="url(#SvgjsFilter1033)" fill="rgba(112, 11, 151, 0.41)"></circle><circle r="6.89" cx="1276.45" cy="99.59" filter="url(#SvgjsFilter1033)" fill="rgba(112, 11, 151, 0.41)"></circle><circle r="6.21" cx="182.17000000000002" cy="200.42000000000002" filter="url(#SvgjsFilter1033)" fill="rgba(112, 11, 151, 0.41)"></circle><circle r="7.525" cx="754.245" cy="352.185" filter="url(#SvgjsFilter1033)" fill="rgba(112, 11, 151, 0.41)"></circle><circle r="8.36" cx="1112" cy="497.45" filter="url(#SvgjsFilter1033)" fill="rgba(112, 11, 151, 0.41)"></circle><circle r="9.05" cx="980.06" cy="103.27" filter="url(#SvgjsFilter1033)" fill="rgba(112, 11, 151, 0.41)"></circle><circle r="5.445" cx="935.755" cy="112.42500000000001" filter="url(#SvgjsFilter1033)" fill="rgba(112, 11, 151, 0.41)"></circle><circle r="6.435" cx="518.885" cy="547.675" filter="url(#SvgjsFilter1033)" fill="rgba(112, 11, 151, 0.41)"></circle><circle r="8.57" cx="882.48" cy="215.66" filter="url(#SvgjsFilter1033)" fill="rgba(112, 11, 151, 0.41)"></circle><circle r="5.34" cx="344.78" cy="372.34" filter="url(#SvgjsFilter1033)" fill="rgba(112, 11, 151, 0.41)"></circle><circle r="7.18" cx="926.4" cy="172.8" filter="url(#SvgjsFilter1033)" fill="rgba(112, 11, 151, 0.41)"></circle><circle r="7.195" cx="668.335" cy="527.6850000000001" filter="url(#SvgjsFilter1033)" fill="rgba(112, 11, 151, 0.41)"></circle><circle r="7.13" cx="994.33" cy="293.82" filter="url(#SvgjsFilter1033)" fill="rgba(112, 11, 151, 0.41)"></circle><path d="M627.3 210.1L643.4 222 631.3 227.9C629.9 228.4 629.1 230.2 629.5 232.2 630.7 233.6 632.5 234.4 633.9 233.9L650.1 226.5 665.1 237.7 632 252.4C630 253.5 629.2 255.4 630.3 256.8 630.7 258.7 632.6 259.6 634.6 258.5L671.1 242.2 684.9 251.9 681 290.8 667.5 297.2 633.3 271.9C632.7 271.8 632 271.7 631.4 271.7 630.7 271.6 629.4 272.1 628.7 272.7 627.2 274.5 627.7 276.5 629.5 277.3L660.7 300.4 643.9 307.7 627.6 296.4C627.7 295.8 627 295.7 626.4 295.7 625.1 295.5 623.8 296 623 297.3 622.3 298.5 622.7 300.4 623.8 301.8L637.1 310.9 616.2 320.4C614.8 320.9 614 322.8 614.5 324.7 615.6 326.1 617.5 327 618.8 326.5L638.4 317.5 637 330.9C636.8 332.8 638.6 334.2 639.9 334.4 641.8 334.6 643.9 333.5 644 331.6L645.8 314.3 662.6 307 659 342.7C658.8 344.6 660 346 661.9 346.2 663.8 346.4 665.2 345.3 665.4 343.4L669.4 303.8 683.6 296.9 715.4 320 713.9 334.7 676.8 351.6C674.8 352 673.9 354.5 675.1 355.9 675.5 357.9 677.5 358.1 679.4 357.7L713.2 342.4 711.3 360.9 694.5 368.2C693.1 368.7 692.2 371.2 692.8 372.5S695.8 374.8 697.7 374.3L710.5 368.5 708.3 390.8C708.1 392.7 709.9 394.2 711.8 394.4 713.1 394.5 715.1 393.4 715.3 391.5L717.6 369.2 729.6 377.5C730.8 378.3 732.7 378.5 734.2 376.7 735 375.5 734.6 372.9 733.4 372.1L718.3 361.6 720.2 343.1 750.2 364.8C752.1 365.6 754 365.8 755.4 364 756.2 362.8 755.8 360.2 754.6 359.4L721 335.4 722.4 320.8 758.2 304.4 770.8 314 766.8 353.5C766.6 355.5 767.8 356.9 769.7 357.1 771.6 357.2 773.6 356.2 773.8 354.2L777.4 318.5 792.4 329.1 790.7 346.3C790.5 348.2 791.7 349.6 793.6 349.8 795.5 350 796.9 348.8 797.1 346.9L798.4 333.5 815.8 346.2C817.1 347 819.7 346.6 820.4 345.4 821.3 343.6 821.5 341.6 819.6 340.8L801.6 327.4 815.8 321.1C817.2 320 818 318.1 817.5 316.8 817 315.4 815.8 314.7 814.5 314.5 814.5 314.5 813.9 314.5 813.2 315L795 322.9 780 312.4 815.1 295.9C817.1 295.5 817.9 293.6 816.8 291.6 816.2 290.9 815.7 290.2 814.4 290 813.8 290 813.1 289.9 812.5 289.9L774 307.9 762 299 765.9 260.1 781.4 253.2 813.8 276.5C815.6 277.9 817.6 277.5 818.4 275.6 819.8 274.5 819.4 272.5 817.6 271L788.1 250.1 805 242.1 819.4 252.5C820.7 253.3 822.6 252.9 824 251.7 824.9 249.9 825.1 248 823.2 247.1L812.4 239 830.7 230.5C832.7 230 832.8 228.1 832.4 226.2 831.8 225.5 830.6 224.7 829.3 224.6 829.3 224.6 828.7 224.5 828.1 224.4L808.5 233.4 810.1 217.5C810.2 216.2 809.1 214.2 807.2 214 805.3 213.8 803.8 215.6 803.7 216.8L801.7 236.6 784.8 244.6 788.7 205.7C788.9 203.8 787.1 202.3 785.2 202.1S781.9 203.1 781.7 205L777.4 247.7 763.3 254 731.4 230.8 733.1 214.3 770.9 197.4C772.3 196.3 773.1 194.4 772.7 192.5 772.1 191.8 770.9 191 769.6 190.9 769 190.8 768.3 190.7 767.6 191.3L733.9 206.6 735.7 188.1 752.6 180.1C754 179.6 754.8 177.8 754.4 175.8 753.2 174.4 751.4 173.6 750 174.1L736.5 180.5 738.6 160.1C738.7 158.8 737 156.7 735.7 156.5 733.8 156.4 731.7 158.1 731.5 159.4L729.5 179.8 718.1 170.9C717.5 170.8 716.9 170.8 716.2 170.7 715 170.6 713.6 171.1 712.9 171.7 712.1 173.5 712.5 175.5 713.7 176.9L728.7 187.4 726.9 205.9 696.8 184.2C695.1 182.7 693.1 183.2 692.3 184.4 690.8 186.2 691.3 188.2 692.4 189.6L726.1 213.6 724.4 230.1 688.7 246.5 676 237.5 680.3 194.8C680.5 192.9 679.4 191.5 677.4 191.3 675.5 191.1 674.1 192.2 673.9 194.2L670 233 655.1 221.9 657 202.1C657.2 200.8 655.4 198.7 653.5 198.5 651.6 198.4 650.2 200.1 650 201.4L648.4 217.4 631 204.7C630.4 204.6 630.4 204.6 629.7 204.5 628.5 204.4 627.1 204.9 626.4 205.5 625.6 207.3 626 209.3 627.3 210.1ZM723.7 237.8L727.7 236.3 730.7 238.5 756.5 257.2 759.5 259.4 759.1 263.2 756 294.5 755.6 298.3 752.2 299.9 723.2 313.1 719.8 314.7 716.2 312.4 691 293.8 687.4 291.5 687.7 287.6 690.9 256.4 691.3 252.6 695.3 251 723.7 237.8Z" fill="rgba(112, 11, 151, 0.41)"></path><path d="M1076.6 323.7L1093.5 312.8 1094.6 326.3C1094.6 327.7 1096 329.2 1098 329.4 1099.8 328.9 1101.2 327.4 1101.2 326L1100.1 308.2 1115.9 298.2 1117.8 334.4C1118.1 336.6 1119.5 338.1 1121.2 337.5 1123.2 337.8 1124.7 336.4 1124.4 334.1L1122.2 294.2 1136.2 284.8 1171.2 302.3 1172.3 317.2 1136.4 340.1C1136.1 340.7 1135.9 341.3 1135.6 341.8 1135.3 342.4 1135.3 343.8 1135.6 344.7 1136.7 346.7 1138.7 347 1140.1 345.6L1172.9 324.7 1173.7 343 1157.3 354.2C1156.8 353.9 1156.5 354.5 1156.2 355 1155.6 356.2 1155.6 357.6 1156.5 358.8 1157.3 359.9 1159.3 360.2 1161 359.6L1174.2 350.5 1175.6 373.4C1175.6 374.8 1177.1 376.3 1179.1 376.6 1180.8 376 1182.2 374.6 1182.2 373.1L1180.8 351.6 1192.9 357.7C1194.6 358.5 1196.6 357.4 1197.2 356.3 1198 354.5 1197.7 352.2 1196 351.4L1180.6 343.6 1179.7 325.3 1211.8 341.4C1213.5 342.2 1215.2 341.7 1216.1 339.9 1217 338.2 1216.4 336.5 1214.7 335.6L1179.2 317.8 1177.8 302.1 1210.8 280.6 1223.9 287.2 1226.4 327.9C1226.2 329.9 1228.2 331.6 1229.9 331.1 1231.9 331.4 1232.7 329.6 1233 327.6L1230.8 290.7 1247.4 299 1248.2 317.3C1248.2 318.8 1250.2 320.5 1251.7 320.5S1254.8 318.5 1255.1 316.5L1254.3 302.5 1274.3 312.5C1276 313.4 1278.1 312.2 1278.9 310.5 1279.5 309.4 1279.2 307.1 1277.5 306.2L1257.4 296.2 1269.5 287.9C1270.6 287 1271.5 285.3 1270.4 283.3 1269.5 282.1 1266.9 281.5 1265.8 282.4L1250.6 292.7 1234 284.4 1264.9 264.1C1266.4 262.6 1267.2 260.9 1266.1 258.9 1265.2 257.8 1262.7 257.2 1261.5 258L1227.1 280.9 1213.9 274.3 1211.4 235 1224.9 226.7 1260.4 244.6C1262.1 245.4 1263.8 244.9 1264.7 243.1 1265.6 241.4 1265.3 239.1 1263.6 238.3L1231.5 222.2 1246.7 211.9 1262.1 219.6C1263.9 220.5 1265.6 219.9 1266.4 218.2 1267.3 216.5 1266.7 214.8 1265 213.9L1253 207.9 1271.1 196.1C1272.2 195.3 1272.8 192.7 1271.9 191.6 1270.5 190.1 1268.8 189.3 1267.3 190.7L1248.4 202.7 1247.6 187.2C1247 185.5 1245.6 184.1 1244.1 184.1 1242.7 184.1 1241.6 184.9 1241 186.1 1241 186.1 1240.7 186.6 1241 187.5L1241.8 207.3 1226.6 217.6 1223.8 178.9C1224.1 176.9 1222.7 175.4 1220.4 175.7 1219.5 176 1218.6 176.3 1218.1 177.4 1217.8 178 1217.5 178.6 1217.2 179.2L1220.3 221.6 1207.7 229.6 1172.7 212 1171.9 195.1 1205.2 173.1C1207.2 172 1207.5 170 1206 168.5 1205.5 166.8 1203.5 166.5 1201.5 167.7L1171.3 187.7 1169.9 169.1 1184.8 159.3C1186 158.5 1186.3 156.5 1185.7 154.7 1184.3 153.3 1182.6 152.4 1181.1 153.9L1169.7 161 1168.3 141C1168.5 139 1166.8 138.1 1164.8 137.8 1164 138.1 1162.8 138.9 1162.2 140.1 1162.2 140.1 1161.9 140.7 1161.7 141.2L1163.1 162.7 1148.7 155.5C1147.6 155 1145.3 155.3 1144.4 157 1143.6 158.7 1144.7 160.7 1145.9 161.3L1163.6 170.2 1165 188.8 1130.1 171.3C1128.4 170.4 1126.4 171.6 1125.5 173.3S1125.2 176.7 1126.9 177.6L1165.3 196.8 1166.1 212.3 1133.1 233.8 1118.3 226.3 1116 185C1115.5 183.3 1114 181.9 1112 181.6 1111.2 181.9 1110 182.7 1109.4 183.9 1109.1 184.4 1108.9 185 1109.1 185.9L1111.4 222.8 1094.8 214.5 1093.4 195.9C1093.4 194.4 1091.9 193 1089.9 192.7 1088.2 193.3 1086.8 194.7 1086.8 196.2L1087.9 211.1 1069.6 201.9C1068.4 201.3 1065.8 202.1 1065.3 203.3 1064.4 205 1065.3 207.6 1066.4 208.2L1084.7 217.4 1072.4 224.8C1072.1 225.4 1071.8 225.9 1071.5 226.5 1071 227.7 1071 229.1 1071.2 230 1072.7 231.4 1074.7 231.7 1076.4 231.1L1091.6 220.8 1108.2 229.1 1077.2 249.5C1075.2 250.6 1074.9 252.6 1075.8 253.7 1076.9 255.8 1078.9 256 1080.7 255.5L1115.1 232.6 1130 240.1 1132.5 279.3 1119.6 287.9 1081.2 268.7C1079.5 267.8 1077.8 268.4 1076.9 270.1 1076.1 271.8 1076.6 273.5 1078.3 274.4L1113.3 291.9 1097.5 301.9 1079.7 293C1078.6 292.4 1076 293.3 1075.2 295 1074.3 296.7 1075.4 298.7 1076.6 299.3L1090.9 306.5 1072.8 318.2C1072.5 318.8 1072.5 318.8 1072.3 319.4 1071.7 320.5 1071.7 322 1072 322.8 1073.4 324.3 1075.4 324.5 1076.6 323.7ZM1136.9 243.5L1136.9 239.2 1140 237.2 1166.7 219.8 1169.9 217.8 1173.3 219.5 1201.4 233.6 1204.8 235.3 1205.1 239 1207 270.9 1207.3 274.6 1203.9 277.2 1177.5 294 1174 296.6 1170.6 294.9 1142.5 280.8 1139.1 279.1 1139.1 274.8 1136.9 243.5Z" fill="rgba(112, 11, 151, 0.41)"></path><path d="M1329.4 530.6L1329.8 485.8 1341.7 474.6 1341.5 489.7C1341.1 491.4 1342.6 492.3 1344.2 492.8 1345.4 492.6 1346.9 491.3 1346.7 490L1347.3 469.2 1358.7 457.9 1362.4 473.5 1351.6 491.4C1351.6 491.4 1351.4 491.9 1351.4 491.9 1351.1 493 1351.9 494.4 1352.8 495.2 1354.4 495.7 1355.7 495.5 1356.7 494L1364.4 481 1368.1 496.7 1345.6 535.2C1345.6 535.2 1344.9 535.6 1344.9 535.6 1344.6 536.6 1345.4 538 1346.3 538.9 1347.8 539.9 1349.7 539.2 1350.2 537.6L1370.1 504.2 1375.2 523.1 1366.3 538.1C1366.3 538.1 1366.3 538.1 1366.2 538.6 1365.9 539.7 1366.1 541 1367 541.8 1368.7 542.3 1370.4 542.2 1371.4 540.7L1377.2 530.7 1380.8 544.5C1380.9 546.3 1382.5 546.8 1383.8 546.5 1385.6 546.4 1386.5 545 1385.9 543.1L1382.8 529.4 1392.1 535.5C1393.8 535.9 1395.5 535.9 1396 534.2 1397 532.8 1396.8 531.5 1395.3 530.5L1380.3 521.7 1375.7 502.9 1409.7 523C1410.6 523.8 1412.5 523.2 1413.5 521.7 1413.8 520.6 1413.7 518.9 1412.3 517.9L1373.8 495.3 1370 479.7 1383 487.4C1384.4 488.4 1385.8 487.7 1386.8 486.2 1387.7 485.3 1387.1 483.4 1386.1 482.5L1368.1 472.2 1363.8 456.4 1379.4 460.8 1389.5 478.8C1390.3 480.2 1391.9 480.6 1393.3 479.9 1394.5 479.6 1395.1 477.5 1394.3 476.1L1387 462.9 1402.6 467.4 1424.2 506.7C1424.9 508 1426.6 508.5 1428 507.7 1429.3 506.9 1429.8 505.3 1429 503.9L1410.2 469.5 1428.5 474.7 1437.1 489.9C1437.8 491.3 1439.5 491.7 1440.8 491 1442.2 490.2 1442.7 488.6 1441.9 487.2L1436.6 477 1450.1 480.8C1451.8 481.2 1453.1 480.5 1453.6 478.8 1454 477.2 1453.3 475.8 1451.7 475.4L1438.2 471.6 1447.9 466.1C1449.2 465.4 1449.7 463.8 1448.9 462.4S1446.5 460.5 1445.1 461.3L1430.6 469.4 1411.7 464.1 1445.6 445.1C1447 444.3 1447.5 442.7 1446.7 441.3 1445.9 440 1444.3 439.5 1442.9 440.3L1404.2 462 1388.5 457.5 1401.7 450.2C1403 449.4 1403.5 447.8 1402.7 446.4 1402 445 1400.3 444.6 1399 445.3L1381 455.4 1365.8 451.1 1377.1 440.3 1398 440.4C1399.2 440.2 1400.8 438.9 1400.5 437.6 1400.5 435.9 1399.5 435 1397.9 434.6L1382.8 434.4 1394 423.6 1438.8 424C1440.6 423.9 1441.4 423 1441.9 421.3 1441.8 419.6 1440.3 418.6 1439.2 418.3L1399.8 417.6 1414.1 404.2 1430.9 404.3C1432.6 404.7 1433.6 403.3 1434 401.6 1433.8 400.4 1432.5 398.9 1430.7 399L1419.7 398.8 1429.5 388.7C1430.9 387.9 1430.8 386.2 1429.5 384.6 1428.6 383.8 1426.8 383.9 1426 384.8L1415.6 394.7 1415.9 383.1C1415.9 381.4 1414.4 380.4 1413.2 380.6 1411.5 380.1 1410.7 381.1 1410.4 382.1 1410.2 382.7 1410.2 382.7 1410.1 383.2L1410 400.1 1395.7 413.5 1396.2 374.6C1396.7 373 1395.2 372 1393.6 371.6 1392.3 371.8 1391.5 372.7 1391.2 373.8 1391 374.3 1391 374.3 1391 374.3L1389.9 419.5 1378.7 430.3 1378.9 415.2C1378.8 413.4 1377.9 412.6 1376.3 412.1 1375 412.4 1373.7 413.1 1373.4 414.2 1373.2 414.8 1373.2 414.8 1373.1 415.3L1373 436.3 1361.8 447.1 1357.9 432 1368.2 413.9C1369.2 412.5 1368.6 410.5 1367.6 409.7 1366 409.2 1364.3 409.3 1363.8 410.9L1356.1 423.9 1351.6 408.7 1374.8 369.8C1375.7 368.8 1375.1 366.9 1374.1 366.1 1372.5 365.6 1370.7 365.7 1369.8 367.2L1349.8 400.6 1345.2 381.8 1354 367.4C1355 365.9 1354.3 364 1352.7 363.5 1351.8 362.7 1350 362.8 1349 364.2L1343.3 374.3 1339.6 360.4C1339.4 359.2 1337.9 358.2 1336.1 358.3 1335.4 358.6 1334.6 359.6 1334.3 360.7 1334.3 360.7 1334.1 361.2 1334 361.7L1337.7 375.6 1327.6 369.8C1326.7 369 1324.8 369.6 1323.9 370.5 1323.8 371.1 1323.8 371.1 1323.8 371.1 1323.3 372.7 1324.1 374.1 1325.2 374.4L1339.6 383.1 1344.7 402.1 1310.8 382C1309.2 381.5 1307.9 381.8 1306.9 383.2 1306.9 383.2 1306.8 383.8 1306.8 383.8 1306.5 384.8 1306.7 386.1 1308.2 387.1L1346.5 410.1 1350.4 425.2 1337.5 417.5C1335.9 417 1334.1 417.1 1333.6 418.7 1333.1 418.6 1332.9 419.1 1332.9 419.1 1332.6 420.2 1333.4 421.6 1334.3 422.4L1352.4 432.8 1356.1 448.4 1341 444.1 1331 426.1C1330.2 424.8 1328 424.1 1326.6 424.9 1325.8 425.8 1325.3 427.5 1325.6 428.7L1333.5 442 1317.8 437.6 1296.1 398.8C1295.4 397.4 1293.7 397 1292.4 397.8 1291 398.5 1290.5 400.1 1291.3 401.5L1310.3 435.4 1291.4 430.1 1283.2 415.6C1282.5 414.2 1280.8 413.7 1279.5 414.5S1277.6 416.9 1278.4 418.3L1283.8 428 1270.3 424.2C1268.7 423.7 1267.3 424.5 1266.9 426.1 1266.4 427.7 1267.2 429.1 1268.8 429.6L1282.3 433.4 1272.5 439.3C1271.8 439.7 1271.1 440.1 1270.9 440.6 1270.8 441.2 1271 442.4 1271.4 443.1 1272.2 444.5 1273.8 445 1275.2 444.2L1289.8 435.5 1308.7 440.8 1274.7 460.4C1274 460.7 1273.3 461.1 1273.1 461.7 1273 462.2 1273.2 463.4 1273.6 464.1 1274.4 465.5 1276 466 1277.4 465.2L1316.3 443 1331.9 447.4 1318.3 454.6C1317.6 455 1317.3 456.1 1317.1 456.6 1317 457.1 1316.8 457.7 1317.2 458.4 1318 459.8 1320.1 460.4 1321 459.4L1339.5 449.5 1354.6 453.8 1343.2 465.2 1322.4 464.5C1321.2 464.8 1319.8 465.5 1319.5 466.6 1319.4 467.2 1319.4 467.2 1319.9 467.3 1319.5 468.9 1320.8 470.5 1322.5 470.4L1337.6 470.6 1326.3 481.9 1281.1 480.8C1279.9 481.1 1279.1 482 1278.7 483.1 1278.6 483.6 1278.6 483.6 1278.6 483.6 1278.7 485.4 1279.5 486.8 1281.2 486.7L1320.7 487.3 1306.4 500.8 1289.5 500.7C1287.7 500.8 1286.9 501.7 1286.6 502.8 1286.6 502.8 1286.4 503.3 1286.4 503.3 1286.5 505.1 1288 506.1 1289.1 506.4L1300.8 506.2 1290.4 516.1C1290.3 516.6 1290.1 517.2 1289.9 517.7 1289.8 518.2 1290 519.5 1290.4 520.2 1291.9 521.2 1293.5 521.6 1294.5 520.1L1304.9 510.3 1304.5 521.8C1304.6 523.6 1306.1 524.6 1307.1 524.9 1308.9 524.8 1309.9 523.3 1310.4 521.7L1310.5 504.8 1324.2 491.2 1323.7 530.2C1323.8 531.9 1325.1 533.5 1326.4 533.2 1328.1 533.1 1329.5 532.4 1329.4 530.6Z" fill="rgba(112, 11, 151, 0.41)"></path><path d="M538.6 546.6L561.7 522.8 570.8 522.4 581.4 539.9 577 548.2 545 557.2C544.7 557.4 544.7 557.4 544.3 557.6 543.6 558 543.2 558.8 543.4 560 544.1 561 544.8 561.5 546 561.2L574 553.3 567.1 565.9 554.8 569.5C554.8 569.5 554.4 569.7 554.4 569.7 553.8 570.2 553.3 570.9 553.6 572.1 553.6 573 554.9 573.7 556.2 573.4L564.3 571.3 559.1 580.5C558.6 581.3 558.9 582.5 559.8 583.3S562.2 583.3 563 582.4L567.8 573.3 570.3 581.2C570.6 582.5 571.9 583.1 573.1 582.8 573.8 582.4 574.6 581.4 574.3 580.2L570.7 567.9 577.9 555.1 585.9 583.1C586.1 584.3 587.5 584.9 588.3 584.8 589.4 584.2 590.2 583.3 589.9 582L580.6 550.2 585.3 541.8 605.2 541.5 610.2 549.7 602.5 581.9C602.2 583 602.8 584 603.9 584.3S606.1 584 606.3 582.9L613.1 554.5 620.7 567.2 617.7 579.3C617.5 580.4 618.1 581.4 619.4 582S621.5 581.7 621.8 580.6L623.6 572 629.2 581.2C629.8 582.3 631.3 582.3 632.3 581.7 633.3 581.1 633.6 580 633 579L627.4 569.7 635.6 571.7C637 572.4 638 571.7 638 570.3 638.3 569.2 637.7 568.2 636.6 567.9L624.5 564.9 616.8 552.2 645.1 559.5C646.2 559.8 647.6 558.9 647.8 557.8S647.5 555.7 646.4 555.4L614 547.4 609 539.2 618.9 521.5 628.2 521.5 652 544.6C653 545.4 654.2 545.1 655.2 544.5 656.1 543.5 655.8 542.3 655.2 541.3L634.2 521.2 648.5 520.9 657.7 529.9C658.6 530.7 659.9 530.5 660.9 529.8 661.4 529.1 661.4 527.6 660.5 526.8L654.6 521 665.2 520.7C666.1 520.6 666.9 519.7 667.2 518.6 666.9 517.3 665.9 516.5 665.1 516.6L654.5 516.9 660.4 510.5C660.9 509.7 661 508.3 660.2 507.8 659.6 506.8 658.7 506.8 657.7 507.5 657.7 507.5 657.3 507.7 657.3 507.7L648.4 516.8 634 517.1 654.1 496.1C654.9 495.1 655.2 494 654.2 493.2 653.3 492.4 652.4 492.4 651.7 492.8 651.3 493.1 651.3 493.1 651.3 493.1L628.1 517.4 618.8 517.4 608.2 499.9 612.8 492 644.9 482.4C645.8 482.3 646.4 481 646.4 480.1 646.1 478.9 644.8 478.3 643.5 478.6L615.6 486.5 622.5 474 634.8 470.3C636 470 636.8 469 636.2 468 635.9 466.8 634.6 466.2 633.7 466.2L625.5 468.9 630.7 459.6C631 458.5 630.7 457.3 629.7 456.5 629.2 456.4 628.3 456.4 627.6 456.8 627.3 457 627.3 457 627.1 457.6L621.9 466.8 619.3 458.6C619 457.3 617.9 457.1 617 457.1 616.7 457.3 616.7 457.3 616.3 457.5 615.7 458 615.2 458.7 615.3 459.6L618.9 471.9 612 484.5 604 456.5C603.4 455.5 602.5 454.7 601.4 455.3 600.9 455.2 600.9 455.2 600.5 455.4 599.9 455.8 599.6 456.9 599.7 457.8L609.2 489.9 604.6 497.8 584.4 498.4 579.6 490.5 587.6 458C587.9 456.9 587.1 455.6 586 455.3S583.5 455.8 583.2 456.9L576.5 485.3 569.1 473 571.8 460.5C572.1 459.4 571.5 458.4 570.4 458.1 569.3 457.9 568.3 458.5 568 459.6L565.9 467.8 560.4 458.6C559.9 457.9 558.6 457.3 557.6 457.9 556.6 458.5 556.2 460.2 556.6 460.9L562.2 470.1 553.9 468.1C553.4 467.9 552.8 467.8 552.5 468 551.8 468.4 551.7 469 551.5 469.5 551.3 470.6 551.9 471.6 553 471.9L565.3 475.3 572.7 487.6 544.5 480.3C543.9 480.2 543.6 480.4 542.9 480.8 542.6 481 542.2 481.2 542.1 481.8 541.8 482.9 542.6 484.2 543.7 484.5L575.8 492.7 580.6 500.6 571 518.1 561.5 518.7 537.6 495.2C536.8 494.8 535.7 494.5 535 494.9 534.7 495.1 534.7 495.1 534.9 495.5 533.9 496.1 533.8 497.5 534.8 498.3L555.8 518.4 541.1 518.9 531.9 509.9C531.2 509.4 530.3 509.5 529.6 509.9 529.6 509.9 529.2 510.1 529.2 510.1 528.2 510.7 528.1 512.2 529.1 513L535.5 518.9 524.9 519.2C524.4 519.1 524 519.3 523.7 519.5 523 519.9 522.5 520.7 522.7 521 522.7 522.5 523.6 523.3 524.7 523.6L535.3 523.3 529.5 529.1C528.7 530.1 528.6 531.5 529.6 532.4 530.3 532.8 531.8 532.9 532.2 532.1L541.2 523 555.6 522.7 535.5 543.7C534.7 544.7 534.9 545.9 535.6 547 536.3 547.5 537.8 547.5 538.6 546.6ZM583.9 535.6L575.8 522.2 574.6 520.2 575.7 518.1 583.1 504.8 584.5 502.5 586.8 502.5 602.1 502.2 604.4 502.2 605.7 504.2 613.7 517.6 615 519.7 613.9 521.7 606.5 535.1 605.4 537.1 602.7 537.3 587.5 537.6 585.1 537.7 583.9 535.6Z" fill="rgba(112, 11, 151, 0.41)"></path><path d="M137.6 441.5L155.3 427.8 157.7 441.1C157.8 442.5 159.4 443.8 161.4 443.9 163 443.2 164.3 441.7 163.6 440L161.2 423.2 174.6 412 179.5 446.9C180.2 448.6 181.8 449.9 183.2 449.7 185.5 449.2 186.8 447.7 186 446L180.5 407.4 201.5 390.8 202.5 421.5 224.1 399.7 228.3 426.1 198 450.7C197.4 450.5 197.1 451.1 196.9 451.7 196.4 452.9 196.6 454.3 197.5 455.4 198.5 456.4 200.5 456.5 202.2 455.8L229.5 433.5 231.7 450.8 218.5 461.5C217.7 461.9 217.5 462.5 217.2 463.1 217 463.7 217.1 465.1 218.1 466.2 219 467.2 221.1 467.3 222.1 466.4L232.9 458.2 236.6 480.3C236.5 482.3 238.3 483 240.3 483.1 241.8 483 243.1 481.4 242.6 479.2L239.4 457.3 252 462.2C253.8 462.9 255.7 461.6 256.1 460.4 256.8 458.6 256.1 457 254.3 456.3L238.2 449.9 236 432.6 268.3 445.2C270.1 445.9 271.7 445.2 272.4 443.4 272.9 442.2 272.4 439.9 270.6 439.2L234.8 425.2 230.7 398.8 257.6 412.8 249.7 383.6 274.8 393.4 280.5 431.4C281 433.7 282.8 434.4 284.3 434.3 285.7 434.1 287 432.6 287.1 430.5L281.4 396 297.5 402.3 300.5 419.3C300.4 421.3 301.9 422.6 304.2 422.1 305.6 422 306.9 420.4 306.4 418.2L304.6 405.1 325.5 413.3C327.3 414 329 413.2 329.7 411.4S329.7 408 327.9 407.3L307 399.1 317.2 390.7C319 389.4 319.1 387.4 318.2 386.3 316.9 384.4 314.8 384.3 313.5 385.8L299.8 396.3 283.7 390 311.4 368.5C312.7 366.9 312.8 364.9 311.8 363.8 310.5 361.9 308.5 361.8 307.2 363.4L277.1 387.4 252.1 377.6 277.7 361.5 248.5 353.5 269.4 336.9 305.2 350.9C307 351.6 308.9 350.3 309.4 349.1 310.1 347.3 309.3 345.7 307.5 344.9L274.7 332.1 288.7 321 304.8 327.4C306.6 328.1 308.2 327.3 308.9 325.5 309.4 324.3 308.9 322.1 307.1 321.4L294.6 316.5 311.8 302.6C313.7 301.2 313.8 299.2 312.2 297.9 311.2 296.8 309.4 296.1 308.2 297.7L290.4 311.4 288 298.1C287.9 296.7 286.4 295.4 284.9 295.5 283.5 295.6 282.4 296.6 282.2 297.2 282 297.8 281.7 298.4 282.1 299.2L284.5 316 271.1 327.2 266.2 292.3C265.5 290.6 263.9 289.3 262.5 289.5 261.1 289.6 260 290.5 259.6 291.7 259.3 292.3 259.3 292.3 259.7 293.2L265.2 331.8 244.2 348.4 243.2 317.7 221.6 339.5 217.5 313.1 247.7 288.5C248.8 287.5 249.5 285.7 248.2 283.8 247.2 282.8 245.2 282.7 243.5 283.4L216.2 305.7 214.1 288.4 227.2 277.7C228.9 277 229 274.9 227.6 273 226.7 272 224.7 271.9 223 272.6L212.8 281 209.1 258.9C209.2 256.9 207.4 256.2 205.4 256.1 204.6 256.4 203.5 257.4 203.3 258 203 258.6 202.8 259.2 203.1 260L206.3 281.9 193.8 277C192 276.3 190.1 277.6 189.6 278.8L189.6 278.8C188.9 280.6 189.6 282.2 191.4 282.9L207.5 289.3 209.7 306.6 177.4 294C175.7 293.3 174 294 173.3 295.8S173.3 299.3 175.1 300L210.9 314 215 340.4 188.2 326.4 196 355.6 170.9 345.8 165.2 307.8C164.7 305.5 162.9 304.8 161.5 304.9 160 305.1 158.7 306.6 158.6 308.6L163.8 343 148.2 336.9 145.3 319.9C145.4 317.9 143.8 316.6 141.6 317.1 140.1 317.2 138.8 318.8 138.7 320.8L141.1 334.1 120.2 325.9C118.4 325.2 116.7 326 116 327.8S116.1 331.2 117.9 331.9L138.7 340.1 128.6 348.5C127.7 348.9 127.5 349.5 127.3 350.1 126.8 351.2 127.2 352.1 127.5 352.9 128.9 354.8 130.9 354.9 132.2 353.4L145.9 342.9 162 349.2 134.3 370.7C134.1 371.3 133.9 371.9 133.6 372.5 133.2 373.7 133.5 374.5 133.9 375.4 135.2 377.2 137.2 377.4 138.5 375.8L168.6 351.8 193.6 361.6 168.1 377.7 197.3 385.7 176.3 402.3 140.5 388.3C138.7 387.6 136.8 388.9 136.4 390.1 135.7 391.9 136.4 393.5 138.2 394.2L170.4 406.9 157 418.2 140.9 411.8C139.1 411.1 137.5 411.9 136.8 413.7S136.8 417.1 138.6 417.8L151.1 422.7 134 436.6C133.1 437 132.9 437.6 132.7 438.2 132.4 438.8 132.6 440.2 133.5 441.3 134.5 442.4 136.3 443.1 137.6 441.5ZM183.4 375.5L204.4 362.4 197.9 338.5 220.2 350 237.4 332.6 238.7 357.2 262.3 363.7 241.4 376.8 247.8 400.7 226.1 389.5 208.4 406.6 207.6 382.2 183.4 375.5Z" fill="rgba(112, 11, 151, 0.41)"></path><path d="M441.4 134.3L436 125.8 442.8 125.3C443.5 125.3 444.2 124.6 444.4 123.6 444.1 122.8 443.4 122 442.7 122L433.8 122.5 428.8 114.6 446.9 113.7C448.1 113.6 448.8 112.9 448.5 112 448.6 111 447.9 110.3 446.8 110.5L426.9 111.4 422.2 104.4 431.1 86.9 438.6 86.4 449.9 104.5C450.1 104.6 450.4 104.8 450.7 104.9 451 105 451.7 105 452.1 104.9 453.2 104.3 453.3 103.3 452.6 102.6L442.3 86.2 451.5 85.8 457 94.1C456.8 94.3 457.1 94.5 457.4 94.6 458 94.9 458.7 94.9 459.3 94.5 459.8 94.1 460 93.1 459.7 92.2L455.2 85.6 466.7 85C467.4 85 468.1 84.3 468.2 83.3 468 82.4 467.3 81.7 466.5 81.7L455.8 82.3 458.9 76.3C459.3 75.5 458.7 74.4 458.2 74.2 457.3 73.7 456.1 73.8 455.7 74.7L451.8 82.4 442.6 82.8 450.8 66.8C451.2 65.9 450.9 65.1 450.1 64.6 449.2 64.2 448.4 64.5 447.9 65.3L438.9 83 431 83.7 420.4 67.1 423.7 60.5 444.1 59.4C445.1 59.6 446 58.6 445.7 57.7 445.8 56.7 445 56.3 444 56.1L425.5 57.1 429.7 48.8 438.9 48.5C439.6 48.5 440.5 47.5 440.5 46.8S439.5 45.2 438.5 45L431.5 45.4 436.6 35.4C437 34.5 436.4 33.5 435.6 33.1 435 32.8 433.9 32.9 433.4 33.8L428.3 43.8 424.2 37.7C423.8 37.2 422.9 36.7 421.9 37.3 421.4 37.7 421.1 39 421.5 39.6L426.6 47.2 422.3 55.5 412.3 39.9C411.6 39.2 410.7 38.8 409.7 39.3 409.2 39.7 408.9 41 409.3 41.6L420.6 58.9 417.2 65.5 397.6 66.6 393.5 59.8 402.5 42.1C403 41.3 402.7 40.4 401.9 40 401 39.5 399.8 39.7 399.4 40.5L391.2 56.5 386.2 48.9 390.1 41.2C390.5 40.3 390.2 39.4 389.4 39 388.5 38.6 387.7 38.8 387.2 39.7L384.2 45.7 378.4 36.6C378 36 376.7 35.7 376.1 36.2 375.4 36.9 374.9 37.7 375.6 38.4L381.6 48 373.8 48.3C373 48.6 372.2 49.3 372.2 50 372.2 50.7 372.7 51.3 373.2 51.6 373.2 51.6 373.5 51.7 373.9 51.6L383.8 51.3 388.9 58.9 369.6 60.2C368.6 60 367.8 60.7 368 61.9 368.1 62.3 368.3 62.7 368.8 63 369.1 63.2 369.4 63.3 369.7 63.5L390.9 62.1 394.9 68.4 386 85.8 377.5 86.2 366.6 69.5C366.1 68.5 365.1 68.3 364.3 69 363.5 69.3 363.3 70.3 363.9 71.3L373.8 86.4 364.5 87.1 359.6 79.6C359.2 79 358.2 78.8 357.4 79.1 356.6 79.8 356.2 80.7 356.9 81.4L360.4 87.2 350.4 87.8C349.4 87.6 349 88.5 348.8 89.5 349 89.9 349.4 90.5 349.9 90.8 349.9 90.8 350.2 91 350.5 91.1L361.3 90.5 357.6 97.6C357.3 98.2 357.5 99.3 358.3 99.8 359.2 100.2 360.2 99.6 360.5 99.1L365 90.2 374.3 89.6 365.4 107C365 107.9 365.5 108.9 366.4 109.3S368.1 109.5 368.6 108.6L378.3 89.5 386.1 89.1 396.7 105.7 392.9 113.1 372.2 114.1C371.4 114.4 370.7 115.1 370.5 116.1 370.6 116.5 371.1 117.1 371.6 117.4 371.9 117.5 372.2 117.7 372.6 117.5L391.1 116.5 386.9 124.8 377.6 125.4C376.9 125.4 376.1 126.2 376 127.2 376.3 128 377 128.7 377.7 128.7L385.2 128.2 380.5 137.4C380.2 137.9 380.6 139.2 381.2 139.5 382 140 383.3 139.5 383.6 139L388.3 129.8 392 136C392.2 136.2 392.5 136.3 392.8 136.5 393.4 136.8 394.1 136.8 394.5 136.6 395.3 135.9 395.4 134.9 395.1 134.1L390 126.4 394.3 118.1 404.3 133.7C404.9 134.7 405.9 134.9 406.4 134.5 407.5 133.9 407.6 132.9 407.3 132L396 114.7 399.8 107.3 419.5 106.2 423.7 112.7 413.9 131.8C413.5 132.7 413.8 133.5 414.6 134 415.5 134.4 416.3 134.1 416.8 133.3L425.7 115.8 430.6 123.8 426.1 132.6C425.8 133.2 426.2 134.5 427.1 134.9 427.9 135.4 428.9 134.8 429.2 134.2L432.9 127.1 438.7 136.2C439 136.3 439 136.3 439.2 136.5 439.8 136.8 440.5 136.8 441 136.6 441.7 135.9 441.8 134.9 441.4 134.3ZM401.6 103.9L399.4 103.9 398.4 102.3 389.8 88.9 388.8 87.3 389.7 85.6 396.8 71.6 397.7 69.9 399.6 69.8 415.5 68.9 417.4 68.8 418.6 70.5 427 83.8 428.2 85.5 427.4 87.2 420.2 101.2 419.3 102.9 417.2 102.9 401.6 103.9Z" fill="rgba(112, 11, 151, 0.41)"></path><path d="M484.2 357.1L458.5 363.6 438.2 351.3 459 339.9 484.4 347.5C484.4 347.5 484.8 347.5 484.8 347.5 485.4 347.6 486.1 346.9 486.4 346.3 486.7 345.3 486.1 344.4 485.2 344.3L462.9 337.8 472.9 332.2 482.8 335C482.8 335 483.1 335 483.1 335 483.8 335 484.4 334.4 484.8 333.8 485.1 332.8 484.5 331.8 483.5 331.8L476.8 329.7 484.3 325.7C484.9 325.4 485.3 324.2 485 323.5 484.7 322.5 483.4 322.5 482.7 322.8L475.3 326.8 477.4 320.1C477.7 319.2 477.1 318.2 476.1 318.2 475.2 317.8 474.2 318.5 474.2 319.4L471.4 329.3 461.3 334.5 467.9 312.2C468.3 311.3 467.6 310.3 466.7 310.3 465.7 309.9 464.7 310.6 464.7 311.5L457.1 337 436.4 348.4 436.9 324.4 456.2 305.9C456.8 305.3 456.9 304.3 456.2 303.7 455.6 303 454.7 303 454 303.6L437 319.9 437.2 308.4 444.4 301.5C445.1 300.8 445.1 299.9 444.5 299.2 443.9 298.6 442.9 298.6 442.2 299.2L437.3 303.9 437.5 294.9C437.9 294 436.9 293.3 436 293.3 435 293.3 434.3 293.9 434.3 294.8L434.1 303.2 429.4 298.3C428.8 297.6 427.8 297.6 427.2 298.2S426.5 299.8 427.1 300.5L434 307.7 433.8 319.2 417.5 302.2C416.9 301.5 415.9 301.5 415.2 302.1 414.6 302.7 414.6 303.7 415.2 304.4L433.7 323.7 433.2 347.4 412.9 335.1 406.7 309.9C406.4 309 405.5 308.6 404.5 308.6 403.6 308.9 403.2 309.9 403.2 310.8L408.8 333.4 399 327.4 396.6 317.4C396.3 316.4 395.4 316.1 394.4 316.1 393.5 316.4 393.1 317.3 393.1 318L394.9 324.8 387.6 320.4C387 320.1 385.7 320.1 385.3 321 385 322 385 322.9 385.9 323.3L393.2 327.6 386.4 329.4C385.5 329.7 385.1 330.6 385.1 331.3 385.4 331.9 386.1 332.6 386.7 332.6 386.7 332.6 387 332.6 387 332.6L397 330.2 406.8 336.2 384.3 341.8C383.3 342.1 382.9 343.1 382.9 343.7 383.2 344.4 383.9 345 384.5 345 384.5 345 384.8 345 384.8 345L410.6 338.6 430.9 350.9 410.1 362.3 384.6 354.7C383.7 354.3 382.7 354.9 382.7 355.9 382.3 356.8 382.9 357.8 383.9 357.8L406.2 364.4 396.1 370 386.3 367.2C385.3 366.8 384.3 367.5 384.3 368.4 384 369.4 384.6 370.4 385.6 370.4L392.2 372.4 384.8 376.5C384.1 376.8 383.8 378 384.1 378.7 384.4 379.3 385 379.7 385.7 379.7 386 379.7 386.3 379.7 386.6 379.4L394.1 375.4 392 382.1C391.7 383 392.3 384 393.3 384 393.3 384 393.6 384 393.6 384 394.2 384 394.9 383.4 395.2 382.8L398 372.9 408.1 367.3 401.5 389.6C401.1 390.6 401.8 391.6 402.7 391.6 402.7 391.6 403 391.6 403 391.6 403.7 391.6 404.3 391 404.7 390.3L412.3 364.9 433 353.5 432.5 377.2 413.2 395.7C412.6 396.3 412.5 397.3 413.2 397.9 413.8 398.6 414.7 398.6 415.4 398L432.4 382 432.2 393.5 425 400.4C424.3 401 424.3 402 424.9 402.7S426.5 403.3 427.2 402.7L432.1 398 431.9 406.3C431.9 407.3 432.5 407.9 433.5 408 434.4 408 435.1 407.4 435.1 406.4L435.3 398.1 440 403C440.3 403.3 440.6 403.6 441.2 403.6S442.2 403.3 442.5 403C443.2 402.4 443.2 401.4 442.6 400.8L435.7 393.6 435.9 382.1 452.2 399.1C452.5 399.4 452.9 399.7 453.5 399.7 453.8 399.8 454.5 399.4 454.8 399.1 455.5 398.5 455.5 397.5 454.8 396.9L436.4 377.6 436.9 353.9 457.1 366.2 463.6 392C463.9 392.6 464.5 393.3 465.2 393.3 465.2 393.3 465.5 393.3 465.5 393.3 466.5 393 466.8 392 466.8 391.4L461.2 368.8 471 374.8 473.4 384.8C473.7 385.4 474.3 386.1 475 386.1 475 386.1 475.3 386.1 475.3 386.1 476.2 385.8 476.6 384.9 476.6 384.2L474.8 377.5 482.1 381.8C482.4 381.8 482.7 382.1 483.1 382.1 483.7 382.1 484.3 381.8 484.7 381.2 485 380.2 485 379.3 484.1 378.9L476.8 374.6 483.6 372.8C484.5 372.5 484.9 371.6 484.9 370.9 484.6 370 483.6 369.6 483 369.6L473 372 463.2 366 485.8 360.4C486.7 360.1 487.1 359.1 487.1 358.5 486.2 357.5 485.2 356.8 484.2 357.1Z" fill="rgba(112, 11, 151, 0.41)"></path><path d="M991.7 576.6L985.8 543.9 1002.9 519.7 1015.3 546.6 1003.7 577.7C1003.7 577.7 1003.7 578.1 1003.7 578.1 1003.6 578.9 1004.3 579.8 1005.1 580.2 1006.2 580.7 1007.5 580 1007.6 578.8L1017.7 551.6 1023.8 564.6 1019.5 576.7C1019.5 576.7 1019.4 577.1 1019.4 577.1 1019.4 577.9 1020.1 578.8 1020.9 579.2 1022 579.7 1023.3 579 1023.4 577.8L1026.5 569.7 1030.9 579.3C1031.2 580.2 1032.8 580.7 1033.6 580.4 1034.9 580.1 1035 578.5 1034.7 577.7L1030.3 568 1038.5 571.2C1039.6 571.7 1040.9 571 1041 569.8 1041.5 568.6 1040.8 567.3 1039.6 567.2L1027.6 562.9 1021.9 550 1049.1 560C1050.3 560.6 1051.6 559.9 1051.7 558.7 1052.2 557.5 1051.5 556.2 1050.3 556.1L1019.2 544.5 1006.7 517.6 1036.6 520.3 1058 546C1058.8 546.8 1060 546.9 1060.8 546.2 1061.7 545.5 1061.8 544.3 1061.1 543.4L1042.2 520.8 1056.6 522.1 1064.5 531.7C1065.3 532.5 1066.5 532.7 1067.3 531.9 1068.2 531.2 1068.3 530 1067.6 529.1L1062.1 522.6 1073.3 523.6C1074.5 524.1 1075.4 523 1075.5 521.8 1075.6 520.6 1074.9 519.7 1073.7 519.6L1063.3 518.7 1069.8 513.2C1070.7 512.5 1070.8 511.3 1070.1 510.5S1068.1 509.5 1067.3 510.2L1057.7 518.2 1043.3 516.9 1066 498C1066.8 497.3 1066.9 496.1 1066.2 495.2 1065.5 494.4 1064.3 494.2 1063.4 495L1037.8 516.4 1008.2 513.7 1025.3 489.5 1057.2 484C1058.4 483.7 1058.9 482.5 1059 481.3 1058.7 480.1 1057.6 479.6 1056.4 479.5L1027.8 484.5 1036 472.8 1048.7 470.7C1049.9 470.4 1050.4 469.3 1050.5 468.1 1050.3 466.8 1049.1 466.3 1048.3 466.3L1039.7 467.9 1045.7 459.2C1046.2 458.4 1046.3 456.8 1045.2 456.3 1044 455.8 1042.8 455.7 1042.3 456.9L1036.3 465.6 1034.6 457C1034.4 455.8 1033.2 455.3 1032.4 455.2 1031.6 455.5 1030.7 456.2 1030.6 457 1030.6 457 1030.6 457.4 1030.6 457.4L1032.7 470.1 1024.4 481.8 1019.3 453.2C1019 452 1017.9 451.5 1017.1 451.4 1016.2 451.7 1015.4 452.5 1015.3 453.3 1015.3 453.3 1015.2 453.7 1015.2 453.7L1021.2 486.4 1004.1 510.6 991.6 483.7 1003.3 452.6C1003.8 451.4 1003.1 450.1 1001.9 450 1000.7 449.5 999.5 450.2 999.4 451.4L989.3 478.7 983.2 465.7 987.5 453.6C988 452.4 987.3 451.1 986.1 451 985 450.5 983.7 451.2 983.6 452.4L980.4 460.6 976.1 450.9C975.7 450.1 974.2 449.6 973.4 449.9 972.5 450.2 972 451 972 451.8 971.9 452.2 971.9 452.6 972.3 453L976.6 462.7 968.5 459.5C967.3 459 966 459.7 965.9 460.9 965.9 460.9 965.9 461.3 965.9 461.3 965.8 462.1 966.6 463 967.3 463.4L979.4 467.7 985.5 480.7 958.2 470.7C957.1 470.1 955.8 470.8 955.7 472 955.7 472 955.6 472.4 955.6 472.4 955.6 473.2 956.3 474.1 957.1 474.6L988.2 486.2 1000.7 513.1 971.1 510.4 949.7 484.8C949 483.9 947.8 483.8 946.9 484.5 946 485.2 945.9 486.4 946.7 487.3L965.2 509.9 950.8 508.6 942.8 499C942.1 498.2 940.9 498 940 498.8S939 500.7 939.8 501.6L945.2 508.1 934.8 507.2C933.6 507.1 932.8 507.8 932.7 509 932.6 510.2 933.3 511 934.5 511.1L944.8 512.1 938.3 517.5C937.9 517.9 937.5 518.3 937.4 519.1S937.7 520.3 938 520.7C938.8 521.6 940 521.7 940.8 521L950.4 513 964.8 514.3 942.2 533.2C941.7 533.5 941.3 533.9 941.2 534.7 941.2 535.1 941.5 535.9 941.9 536.3 942.6 537.2 943.8 537.3 944.7 536.6L970.3 515.2 999.8 517.8 982.8 542 950.1 547.9C949.2 548.3 948.4 549 948.3 549.8 948.3 549.8 948.3 550.2 948.3 550.2 948.6 551.4 949.7 551.9 950.5 552L979.1 546.9 970.8 558.7 958.2 560.7C957.3 561.1 956.5 561.8 956.4 562.6 956.4 562.6 956.4 563 956.4 563 956.7 564.2 957.8 564.7 958.6 564.8L967.2 563.2 961.2 571.9C961.2 572.3 960.7 572.6 960.7 573 960.6 573.8 960.9 574.7 961.7 575.1 962.9 575.6 964.1 575.7 964.6 574.6L970.6 565.9 972.2 574.5C972.5 575.7 973.7 576.2 974.5 576.3 975.7 576 976.2 574.8 976.3 574L974.2 561.4 982.5 549.6 987.6 578.3C987.9 579.5 989 580 989.8 580.1 991.1 579 992 577.8 991.7 576.6Z" fill="rgba(112, 11, 151, 0.41)"></path></g><defs><mask id="SvgjsMask1032"><rect width="1442" height="562" fill="#ffffff"></rect></mask><filter id="SvgjsFilter1033"><feGaussianBlur stdDeviation="1"></feGaussianBlur></filter></defs></svg>