<svg xmlns="http://www.w3.org/2000/svg" version="1.1" xmlns:xlink="http://www.w3.org/1999/xlink" xmlns:svgjs="http://svgjs.com/svgjs" width="1442" height="562" preserveAspectRatio="none" viewBox="0 0 1442 562"><g mask="url(&quot;#SvgjsMask1058&quot;)" fill="none"><rect width="1442" height="562" x="0" y="0" fill="rgba(37, 36, 57, 1)"></rect><circle r="8.94" cx="563.9000000000001" cy="148.53" filter="url(#SvgjsFilter1059)" fill="rgba(112, 11, 151, 0.3)"></circle><circle r="9.125" cx="713.315" cy="369.895" filter="url(#SvgjsFilter1059)" fill="rgba(112, 11, 151, 0.3)"></circle><circle r="8.33" cx="646.38" cy="441.68" filter="url(#SvgjsFilter1059)" fill="rgba(112, 11, 151, 0.3)"></circle><circle r="8.67" cx="741.54" cy="108.29" filter="url(#SvgjsFilter1059)" fill="rgba(112, 11, 151, 0.3)"></circle><circle r="5.94" cx="1431.76" cy="127.07" filter="url(#SvgjsFilter1059)" fill="rgba(112, 11, 151, 0.3)"></circle><circle r="4.825" cx="120.97500000000001" cy="439.775" filter="url(#SvgjsFilter1059)" fill="rgba(112, 11, 151, 0.3)"></circle><circle r="6.04" cx="855.4499999999999" cy="413.26000000000005" filter="url(#SvgjsFilter1059)" fill="rgba(112, 11, 151, 0.3)"></circle><circle r="7.55" cx="451.96000000000004" cy="274.97" filter="url(#SvgjsFilter1059)" fill="rgba(112, 11, 151, 0.3)"></circle><circle r="5.055" cx="473.27500000000003" cy="478.575" filter="url(#SvgjsFilter1059)" fill="rgba(112, 11, 151, 0.3)"></circle><circle r="5.915" cx="201.855" cy="520.555" filter="url(#SvgjsFilter1059)" fill="rgba(112, 11, 151, 0.3)"></circle><circle r="5.805" cx="751.9849999999999" cy="502.65500000000003" filter="url(#SvgjsFilter1059)" fill="rgba(112, 11, 151, 0.3)"></circle><circle r="5.76" cx="123" cy="536.09" filter="url(#SvgjsFilter1059)" fill="rgba(112, 11, 151, 0.3)"></circle><circle r="6.455" cx="216.75500000000002" cy="16.075" filter="url(#SvgjsFilter1059)" fill="rgba(112, 11, 151, 0.3)"></circle><circle r="6.86" cx="1314.6399999999999" cy="522.6800000000001" filter="url(#SvgjsFilter1059)" fill="rgba(112, 11, 151, 0.3)"></circle><circle r="7.83" cx="915.08" cy="421.21999999999997" filter="url(#SvgjsFilter1059)" fill="rgba(112, 11, 151, 0.3)"></circle><circle r="5.245" cx="1381.165" cy="446.035" filter="url(#SvgjsFilter1059)" fill="rgba(112, 11, 151, 0.3)"></circle><circle r="6" cx="1195.83" cy="19.84" filter="url(#SvgjsFilter1059)" fill="rgba(112, 11, 151, 0.3)"></circle><circle r="7.62" cx="493.93" cy="463.2" filter="url(#SvgjsFilter1059)" fill="rgba(112, 11, 151, 0.3)"></circle><circle r="6.915" cx="665.355" cy="250.625" filter="url(#SvgjsFilter1059)" fill="rgba(112, 11, 151, 0.3)"></circle><circle r="5.32" cx="458.8" cy="409.52" filter="url(#SvgjsFilter1059)" fill="rgba(112, 11, 151, 0.3)"></circle><path d="M1151.6 275L1199.7 297.7 1215.4 342.5 1168.8 333.7 1139.1 289.6C1139.1 289.6 1138.6 289.2 1138.6 289.2 1137.7 288.3 1135.9 288.5 1134.5 289 1132.8 290.1 1132.5 292.4 1134 293.6L1160.1 332.1 1137.5 327.9 1125.7 311.1C1125.7 311.1 1125.3 310.6 1125.3 310.6 1124.3 309.8 1122.5 309.9 1121.2 310.5 1119.4 311.5 1119.1 313.8 1120.6 315.1L1128.3 326.8 1111.7 323.5C1110.3 323.1 1108.1 324.7 1107.8 326.1 1107 327.9 1109 329.6 1110.4 330L1127 333.2 1115.3 340.9C1113.5 342 1113.3 344.3 1114.7 345.5 1115.8 347.3 1118.1 347.5 1119.3 346.1L1136.1 334.4 1158.3 339 1119.8 365.1C1118.1 366.2 1117.8 368.5 1119.3 369.7 1120.3 371.5 1122.6 371.7 1123.9 370.3L1168 340.6 1214.5 349.3 1183.2 385.8 1129.9 389.8C1128.1 390 1126.8 391.4 1127 393.2 1127.1 395 1128.6 396.3 1130.4 396.2L1177.4 392.6 1162.3 410.1 1142.4 411.6C1140.6 411.7 1139.4 413.2 1139.5 415 1139.7 416.8 1141.1 418.1 1142.9 417.9L1156.5 416.9 1144.8 430.5C1143 431.6 1143.7 433.8 1145.1 435 1146.6 436.3 1148.4 436.1 1149.6 434.7L1160.5 422 1161.5 435.6C1161.7 437.4 1163.1 438.7 1164.9 438.5S1168 436.9 1167.9 435.1L1166.4 415.2 1181.4 397.7 1185 444.7C1185.1 446.5 1186.5 447.8 1188.4 447.7 1190.2 447.5 1191.4 446.1 1191.3 444.3L1187.2 390.9 1218.1 355 1233.8 399.7 1211.4 446.4C1210.7 448.2 1211.7 450 1213.2 451.2 1215 452 1216.8 451 1218 449.5L1238 407.5 1245.6 429.2 1236.5 447.7C1235.8 449.5 1236.8 451.3 1238.3 452.5 1240.1 453.3 1241.9 452.2 1242.7 451.3L1248.6 438.6 1254.3 454.5C1254.9 455.8 1256.8 457.5 1258.6 456.4 1260.3 455.4 1261.5 453.9 1260.5 452.2L1254.8 436.3 1267.5 442.1C1269.3 442.9 1271.1 441.9 1271.9 440.9 1272.3 439.5 1272.1 437.7 1271.2 436.8 1271.2 436.8 1270.7 436.4 1270.7 436.4L1252.3 427.4 1244.7 405.7 1286.7 425.7C1288.5 426.4 1290.3 425.4 1291.1 424.4 1291.5 423 1291.3 421.2 1290.4 420.4 1290.4 420.4 1289.9 420 1289.9 420L1241.8 397.3 1226.1 352.5 1272.7 361.3 1302.4 405.4C1303.4 407.1 1305.7 407.4 1307 406 1308.7 404.9 1309 402.6 1307.6 401.4L1281.5 362.9 1304.1 367.1 1315.8 383.9C1316.8 385.7 1319.1 386 1320.4 384.5 1322.1 383.5 1322.4 381.2 1320.9 379.9L1313.2 368.2 1329.8 371.5C1331.2 371.9 1333.4 370.3 1333.7 368.9 1334.1 367.5 1333.5 366.2 1332.6 365.4 1332.1 365 1331.6 364.6 1330.7 364.6L1314.1 361.3 1325.8 353.6C1327.5 352.6 1327.8 350.3 1326.3 349 1326.3 349 1325.8 348.6 1325.8 348.6 1324.9 347.8 1323.1 347.9 1321.7 348.5L1304.9 360.2 1282.3 356 1320.8 329.9C1322.5 328.9 1322.8 326.6 1321.3 325.3 1321.3 325.3 1320.9 324.9 1320.9 324.9 1319.9 324.1 1318.1 324.2 1316.8 324.8L1272.6 354.5 1226.1 345.7 1257 309.8 1310.3 305.7C1312.1 305.6 1313.4 304.1 1313.2 302.3 1313.1 300.5 1311.6 299.3 1309.8 299.4L1263.3 302.5 1278.3 285 1298.2 283.5C1300 283.3 1301.2 281.9 1301.1 280.1S1299.5 277 1297.7 277.1L1284.1 278.2 1295 265.5C1296.3 264.1 1296.1 262.3 1294.7 261 1293.2 259.8 1291.4 259.9 1290.1 261.3L1279.3 274 1278.3 260.4C1278.2 259.5 1278.1 258.6 1277.1 257.8S1275.3 257 1274.4 257.1C1272.6 257.2 1271.3 258.7 1271.4 260.5L1272.9 280.4 1257.9 297.9 1254.4 250.9C1254.3 250 1254.2 249.1 1253.2 248.2 1252.8 247.8 1251.4 247.5 1250.5 247.5 1248.7 247.7 1247.4 249.1 1247.5 250.9L1251.6 304.3 1220.7 340.2 1205 295.5 1227.7 247.4C1228.1 246.1 1227.9 244.2 1227 243.4 1227 243.4 1226.5 243 1226.5 243 1224.6 242.2 1222.9 243.3 1222 244.2L1202 286.2 1194.5 264.5 1203.5 246.1C1203.9 244.7 1203.8 242.9 1202.8 242.1 1202.8 242.1 1202.3 241.6 1202.3 241.6 1200.4 240.9 1198.7 241.9 1197.8 242.9L1192 255.6 1186.2 239.7C1185.8 239.3 1185.7 238.4 1185.2 237.9 1184.2 237.1 1182.8 236.8 1181.5 237.3 1179.8 238.3 1178.5 239.8 1179.6 241.5L1185.3 257.5 1172.6 251.6C1170.7 250.8 1169 251.9 1168.2 252.9 1167.4 254.7 1168.4 256.5 1169.4 257.3L1187.8 266.4 1195.4 288.1 1153.4 268.1C1151.5 267.3 1149.8 268.3 1148.9 269.3 1149.1 272 1149.8 274.2 1151.6 275Z" fill="rgba(112, 11, 151, 0.3)"></path><path d="M518.7 161L498.2 207.8 480.7 214.3 487.7 198.5C488.9 197 487.8 195.3 486.3 194.1 484.9 193.8 482.7 194.4 482.4 195.8L472.4 217.4 455.3 224.3 458.4 206.2 477.9 192.2C477.9 192.2 478.3 191.7 478.3 191.7 479.1 190.7 478.9 188.9 478.3 187.6 476.8 186.4 475.4 186.1 473.7 187.2L459.7 197.3 462.8 179.2 503.8 148.9C503.8 148.9 504.7 148.8 504.7 148.8 505.5 147.8 505.3 146 504.7 144.7 503.6 143 501.3 142.8 500.1 144.3L464.1 170.4 467.2 148.2 483.3 136.5C483.3 136.5 483.3 136.5 483.7 136 484.5 135 484.8 133.6 484.2 132.3 482.7 131.1 480.8 130.4 479.1 131.5L468.6 139.4 471 123.2C471.7 121.3 470.2 120.1 468.8 119.8 466.9 119.1 465.2 120.2 464.9 122.5L462.1 138.3 455 127.7C453.5 126.5 451.6 125.7 450.4 127.2 448.7 128.3 448.4 129.7 449.5 131.4L461.2 147.5 457.6 169.3 431 133C430.4 131.7 428.1 131.5 426.4 132.6 425.6 133.5 424.9 135.4 426 137.2L456.3 178.1 453.2 196.2 443.1 182.3C442 180.6 440.2 180.8 438.5 181.8 437.2 182.4 437 184.7 437.6 186L451.9 205 449.3 223.5 434.8 211.9 432.3 188.4C432.2 186.6 430.7 185.4 428.9 185.6 427.5 185.3 425.8 187.3 426 189.1L427.9 206.2 413.4 194.6 408.4 143.6C408.2 141.8 406.7 140.6 404.9 140.8 403.1 141 401.9 142.5 402.1 144.3L406.4 188.9 389.5 175.2 387.3 155.4C387.1 153.6 385.7 152.4 383.8 152.6 382 152.8 380.8 154.3 381 156.1L382 169.2 369.5 159.1C368 157.9 366.2 158.1 365 159.6 363.8 161.1 364 162.9 365.5 164.1L378 174.2 365.3 175.5C363.5 175.7 362.3 177.2 362.5 179S364.2 182 366 181.8L384.9 179.8 402.4 193.9 358.2 198.6C356.4 198.8 355.2 200.3 355.4 202.1 355.6 203.9 357.1 205.1 358.9 204.9L409.4 199.5 423.8 211.2 406.7 213C404.9 213.2 403.7 214.7 403.9 216.5 404.1 218.3 405.6 219.5 407.4 219.3L430.8 216.8 444.8 228.1 428.1 234.5 406.2 224.9C404.8 224.6 402.6 225.3 402.3 226.7 401.5 228.6 402.1 229.9 403.6 231.1L419.4 238.1 402.8 244.5 355.9 223.9C354 223.2 352.7 223.8 351.5 225.3 350.8 227.2 351.9 228.9 352.9 229.7L394.1 248.1 373 255.8 355.3 248.2C353.8 247 352.1 248 350.9 249.5 350.6 250.9 351.3 253.1 353.2 253.9L364.7 259 349.8 265.2C348 265.3 347.3 267.2 348 269.4 348.6 270.7 350.5 271.5 351.8 270.9L367.2 265.1 361.6 277.1C360.9 279 362 280.7 363.4 281 364.9 282.2 366.2 281.6 367 280.6 367.4 280.1 367.4 280.1 367.8 279.6L375.5 262 396.5 254.2 378.5 294.9C377.3 296.4 378.4 298.1 379.9 299.3 381.3 299.6 382.6 299 383.4 298 383.8 297.5 383.8 297.5 383.8 297.5L405.3 250.6 421.9 244.2 414.9 260C414.2 261.9 414.8 263.2 416.3 264.4 417.7 264.7 419.5 264.5 420.3 263.5 420.7 263 420.7 263 421.1 262.5L430.6 240.6 447.3 234.2 444.6 251.8 425.6 266.2C423.9 267.3 423.7 269.6 424.3 270.9 425.8 272.1 427.7 272.8 428.9 271.3L442.8 261.1 440.7 279.1 398.8 309.6C397.5 310.2 397.3 312.5 397.9 313.8 399.4 315 401.3 315.7 403 314.6L438.9 288.4 435.3 310.2 419.7 321.5C418 322.6 417.8 324.9 419.3 326.1 419.8 327.4 421.7 328.1 423.5 327L434 319.1 431.6 335.3C431.3 336.7 432.4 338.4 434.3 339.1 435.2 339 436.5 338.4 437.3 337.4 437.3 337.4 437.7 336.9 438.1 336.4L440.5 320.2 448.5 330.7C449.1 332 451.4 332.2 452.7 331.6 453.1 331.1 453.1 331.1 453.1 331.1 454.3 329.6 454.1 327.8 453.1 327L441.8 311.4 444.9 289.2 471.6 325.5C473.1 326.7 474.5 327 476.2 325.9 476.2 325.9 476.6 325.4 476.6 325.4 477.4 324.4 477.7 323 476.6 321.3L446.7 279.9 449.3 262.3 459.5 276.2C461 277.4 462.9 278.1 464.1 276.6 464.6 277 465 276.5 465 276.5 465.8 275.5 465.6 273.7 465 272.4L450.7 253.5 453.8 235.4 467.7 246.6 470.2 270.1C470.4 271.9 472.4 273.5 474.2 273.3 475.5 272.7 476.7 271.2 477 269.8L474.7 252.3 489.2 263.9 494.6 314.4C494.8 316.2 496.3 317.4 498.1 317.2 499.9 317 501.1 315.5 500.9 313.7L496.2 269.6 513.6 283.7 515.6 302.6C515.8 304.4 517.3 305.6 519.1 305.4S522.1 303.7 521.9 301.9L520.6 289.3 533.1 299.3C534.6 300.6 536.4 300.4 537.6 298.9 538.8 297.4 538.6 295.6 537.1 294.4L524.6 284.3 537.6 282.5C538.5 282.4 539.4 282.3 539.9 281.8 540.3 281.3 540.6 279.9 540.5 279 540.3 277.2 538.8 276 537 276.1L517.6 278.7 500.2 264.6 544.7 259.4C545.6 259.3 546.6 259.2 547 258.7 547.4 258.2 547.7 256.8 547.6 255.9 547.4 254.1 545.9 252.9 544.1 253.1L493.2 258.9 478.7 247.3 496.4 245.8C497.3 245.7 498.1 244.8 498.5 244.3 498.9 243.8 499.3 243.3 499.2 242.4 499 240.6 497 238.9 495.7 239.5L471.8 241.6 457.8 230.4 474.8 223.5 496.4 233.5C497.8 233.8 499.6 233.6 500.4 232.7 500.8 232.2 500.8 232.2 500.3 231.7 501.5 230.3 500.8 228 498.9 227.3L483.2 220.4 500.2 213.5 547.2 234.9C548.6 235.3 549.9 234.7 550.7 233.7 551.1 233.2 551.1 233.2 551.1 233.2 551.8 231.3 551.6 229.5 549.7 228.8L508.5 210.4 529.6 202.6 547.3 210.3C549.2 211 550.5 210.4 551.3 209.4 551.3 209.4 551.7 208.9 551.7 208.9 552.4 207 551.3 205.3 550.3 204.5L537.9 199.5 553.2 193.7C553.6 193.2 554 192.7 554.4 192.2 554.8 191.7 555.1 190.3 555.1 189.4 554 187.7 552.5 186.5 550.8 187.6L535.4 193.4 541 181.4C541.7 179.5 540.6 177.8 539.6 177 537.7 176.3 536 177.3 534.8 178.8L527.1 196.5 506.5 204.7 524.5 164C525.2 162.1 524.5 159.9 523.1 159.6 521.2 158.9 519.4 159.1 518.7 161Z" fill="rgba(112, 11, 151, 0.3)"></path><path d="M841.4 591.1L860.2 541.5 873.3 535.2 900 554.1 898.8 569 857.6 602.6C857.2 603.1 857.2 603.1 856.8 603.6 856.1 604.7 855.9 606.1 857.1 607.7 858.6 608.9 860 609.1 861.7 607.9L897.6 578.4 895.5 601.3 879.8 614.5C879.8 614.5 879.4 615 879.4 615 878.7 616.1 878.5 617.5 879.7 619.1 880.3 620.4 882.6 620.4 884.3 619.3L894.8 611 893.1 627.9C892.9 629.3 894 630.9 896 631.5S899.4 630 900 628.1L901.4 611.8 910 621.8C911.2 623.5 913.5 623.5 915.1 622.3 915.9 621.3 916.5 619.4 915.3 617.7L902 602 904.5 578.6 934 614.6C935.2 616.2 937.5 616.3 938.8 615.6 939.9 614 940.5 612.1 939.3 610.5L905.4 569.8 906.9 554.3 935.9 541.2 948.5 550.1 957.7 602.3C958 604.1 959.6 605.2 961.4 604.9S964.3 603 964 601.3L955.8 555.3 975.1 569 978.4 588.7C978.7 590.5 980.3 591.6 982.6 591.7S985.5 589.8 985.2 588L982.4 574.3 996.5 584.3C998.1 585.4 1000.2 584.6 1001.3 583 1002.4 581.4 1002.1 579.7 1000.6 578.5L986.5 568.5 999.9 566.3C1002.2 566.3 1003.3 564.8 1002.5 562.6 1002.2 560.8 1000.6 559.7 998.8 560L979.2 563.3 959.9 549.6 1006 542.3C1007.7 542 1009.2 539.9 1008.9 538.1S1007.1 535.2 1005.3 535.5L952.5 544.3 940 535.4 943.3 503.2 957 497.2 1006.6 516C1008.5 516.5 1010.2 515.4 1011.3 513.8 1011.9 511.8 1010.7 510.2 1009.1 509.1L965.5 493 986.4 483.5 1005.6 490.8C1007.5 491.4 1009.2 490.2 1010.3 488.7 1010.5 487.3 1009.7 485.1 1007.7 484.5L995.4 479.7 1010.8 472.5C1012 471.8 1012.6 469.9 1012.3 468.1 1011.1 466.5 1009.2 465.9 1007.9 466.6L992.6 473.7 997.3 460.5C997.5 459.1 996.7 457 995.3 456.7 993.7 455.6 992.4 456.3 991.3 457.9 991.3 457.9 990.9 458.4 990.9 458.4L983.6 477.5 962.7 487 978.8 443.4C979.4 441.5 979.1 439.7 977.1 439.1 975.2 438.5 973.9 439.2 973.2 440.2 972.8 440.8 972.8 440.8 972.8 440.8L954.2 491.2 940.5 497.2 913.9 478.2 915.5 463.7 956.6 429.2C957.9 428.6 958 426.3 957.3 425 956.1 423.4 953.8 423.3 952.1 424.5L916.2 454 918.3 431.1 934 417.9C935.7 416.7 936.3 414.7 934.7 413.6 933.5 412 931.2 411.9 929.9 412.6L919.5 421.7 921.3 404.9C921 403.1 919.8 401.4 917.8 400.8 916.9 401 915.7 401.7 914.9 402.7 914.6 403.2 914.6 403.2 914.7 404.1L912.9 421 903.8 410.5C902.6 408.9 900.9 409.2 899.6 409.9 899.2 410.4 899.2 410.4 898.9 410.9 898.1 412 897.9 413.4 898.6 414.6L911.8 430.3 909.6 453.2 880.2 417.3C878.6 416.2 876.7 415.6 875.5 417.1 874.6 417.3 874.6 417.3 874.3 417.8 873.5 418.9 873.8 420.6 874.5 421.9L909 463 907.3 477.5 877.9 491.2 865.9 482.6 857 429.9C856.7 428.1 854.6 426.6 852.8 426.9S849.6 429.3 849.9 431.1L858.1 477.1 839.3 463.7 835.4 443.7C835.1 441.9 833.6 440.7 831.8 441.1 830 441.4 828.9 442.9 829.2 444.7L831.4 458.1 817.3 448.1C816.3 447.3 814 447.3 812.9 448.8 811.7 450.4 812.2 453.1 813.2 453.8L827.3 463.9 813.9 466.1C813 466.3 812.1 466.4 811.8 466.9 811 468 811.2 468.9 811.3 469.8 811.6 471.6 813.2 472.7 815 472.4L835.2 469.4 854 482.8 807.9 490.1C807 490.3 806.6 490.8 805.8 491.8 805.5 492.3 805.1 492.9 805.3 493.8 805.6 495.6 807.6 497 809.4 496.7L861.8 488.4 873.8 496.9 870.9 528.7 857.3 535.6 807.2 516.4C805.8 516.2 804 516.5 803.3 517.5 802.9 518.1 802.9 518.1 803.4 518.4 802.3 520 803.1 522.2 805.1 522.7L848.7 538.8 827.4 548.9 808.2 541.5C806.8 541.3 805.6 542 804.8 543 804.8 543 804.4 543.5 804.4 543.5 803.3 545.1 804.1 547.3 806.1 547.9L819.3 552.5 803.9 559.7C803 559.9 802.7 560.4 802.3 560.9 801.6 561.9 801.3 563.4 801.9 563.7 802.7 565.9 804.6 566.5 806.4 566.2L821.7 559 816.9 571.3C816.3 573.2 817.2 575.4 819.1 576 820.5 576.2 822.7 575.4 822.9 574L830.2 554.8 851.2 545.3 835.1 588.9C834.5 590.9 835.7 592.5 837.2 593.6 838.6 593.8 840.8 593 841.4 591.1ZM900.9 546.1L880.6 531.6 877.4 529.4 877.7 525.7 880.1 501.4 880.7 497.1 884.2 495.7 906.3 485.5 909.8 484 912.9 486.2 933.3 500.7 936.4 503 936.1 506.7 933.8 531 933.5 534.7 929.7 536.7 907.5 546.9 904.1 548.4 900.9 546.1Z" fill="rgba(112, 11, 151, 0.3)"></path><path d="M1418.1 259.8L1401.5 239 1404.3 215.5 1423.3 229.7 1426.9 256C1426.9 256 1427.1 256.3 1427.1 256.3 1427.3 256.9 1428.2 257.2 1428.9 257.3 1429.9 257.2 1430.5 256.2 1430.1 255.3L1426.9 232.3 1436.1 239.2 1437.7 249.3C1437.7 249.3 1437.8 249.6 1437.8 249.6 1438 250.2 1438.9 250.5 1439.6 250.6 1440.6 250.5 1441.2 249.5 1440.9 248.6L1440 241.7 1446.7 246.8C1447.3 247.3 1448.6 247.1 1449 246.5 1449.8 245.9 1449.3 244.7 1448.7 244.2L1442 239.1 1448.9 238.2C1449.9 238.1 1450.6 237.1 1450.2 236.3 1450.1 235.2 1449.1 234.6 1448.3 235L1438.1 236.6 1429.2 229.6 1452.2 226.3C1453.2 226.2 1453.8 225.3 1453.5 224.4 1453.4 223.4 1452.4 222.7 1451.5 223.1L1425.2 226.8 1406.2 212.6 1428.3 203.1 1453.1 213C1454 213.4 1454.8 213 1455.2 212.1 1455.5 211.3 1455.1 210.4 1454.3 210.1L1432.4 201.4 1443 196.8 1452.3 200.5C1453.1 200.8 1454 200.4 1454.3 199.6 1454.7 198.8 1454.3 197.9 1453.4 197.5L1447.1 195 1455.4 191.5C1456.4 191.4 1456.6 190.3 1456.2 189.4 1455.8 188.5 1455 188.2 1454.1 188.5L1446.4 191.8 1449 185.5C1449.3 184.7 1448.9 183.8 1448.1 183.5S1446.4 183.5 1446 184.3L1442.3 193.6 1431.7 198.2 1440.5 176.3C1440.8 175.4 1440.4 174.5 1439.6 174.2 1438.7 173.9 1437.8 174.3 1437.5 175.1L1427.6 199.9 1405.8 209.3 1408.6 185.8 1428.9 169.7C1429.7 169 1429.6 168 1429.2 167.1 1428.5 166.4 1427.5 166.5 1426.6 166.9L1408.4 181.3 1409.8 169.9 1417.9 163.6C1418.7 163 1418.6 161.9 1418.2 161.1 1417.5 160.3 1416.5 160.4 1415.9 160.6L1410.5 165.1 1411.4 156.6C1411.5 155.9 1411 154.8 1410 154.8 1409 154.9 1408.1 155.3 1408.2 156.3L1407.2 164.7 1402.8 159.3C1402.1 158.6 1401.1 158.6 1400.5 158.9 1400.1 159.4 1399.7 160.3 1400 160.9 1400 160.9 1400.1 161.2 1400.1 161.2L1406.4 169.3 1405 180.7 1390.6 162.5C1389.9 161.7 1388.9 161.8 1388.3 162.1 1387.8 162.6 1387.5 163.4 1387.8 164 1387.8 164 1387.9 164.3 1387.9 164.3L1404.5 185.1 1401.7 208.6 1382.7 194.5 1379.1 168.1C1379 167.1 1378 166.5 1377.1 166.9 1376.1 167 1375.5 167.9 1375.9 168.8L1379.1 191.8 1369.9 185 1368.3 174.8C1368.2 173.8 1367.3 173.2 1366.4 173.6 1365.4 173.7 1364.8 174.6 1365.1 175.5L1366 182.4 1359.3 177.3C1358.7 176.9 1357.4 177.1 1357 177.6 1356.5 178.2 1356.5 178.9 1356.7 179.5 1356.9 179.8 1357 180.1 1357.4 180.2L1364.1 185.4 1357.2 186.2C1356.2 186.3 1355.6 187.3 1355.9 188.2 1355.9 188.2 1356.1 188.5 1356.1 188.5 1356.3 189.1 1357.2 189.4 1357.9 189.4L1368 187.9 1377.2 194.7 1354.2 198C1353.2 198.1 1352.6 199 1353 199.9 1353 199.9 1353.1 200.2 1353.1 200.2 1353.3 200.8 1354.2 201.1 1354.9 201.2L1381.2 197.5 1400.2 211.7 1378.4 221.1 1353.6 211.2C1352.8 210.8 1351.9 211.2 1351.5 212 1351.2 212.9 1351.6 213.8 1352.4 214.1L1374 223 1363.4 227.5 1354.2 223.8C1353.3 223.5 1352.4 223.9 1352.1 224.7S1352.1 226.4 1353 226.8L1359.3 229.3 1351.6 232.6C1350.8 233 1350.4 233.8 1350.8 234.7 1351.2 235.6 1352 235.9 1352.9 235.5L1360.6 232.2 1358 238.5C1357.9 239 1357.7 239.4 1358 240S1358.6 240.7 1359.1 240.9C1359.9 241.2 1360.8 240.9 1361.1 240L1364.8 230.8 1375.4 226.2 1366.7 248.1C1366.5 248.5 1366.3 248.9 1366.6 249.5 1366.7 249.8 1367.3 250.3 1367.7 250.4 1368.5 250.8 1369.4 250.4 1369.8 249.6L1379.7 224.7 1401.4 215.4 1398.7 238.9 1377.9 255.5C1377.4 256 1377.1 256.9 1377.3 257.5 1377.3 257.5 1377.5 257.8 1377.5 257.8 1378.1 258.5 1379.2 258.4 1379.7 258.2L1397.9 243.7 1396.6 255.1 1388.5 261.4C1388 261.9 1387.7 262.8 1387.9 263.4 1387.9 263.4 1388 263.7 1388 263.7 1388.7 264.4 1389.7 264.3 1390.3 264.1L1395.7 259.7 1394.8 268.1C1394.9 268.4 1394.8 268.8 1394.9 269.1 1395.2 269.7 1395.7 270.1 1396.4 270.2 1397.4 270.1 1398.3 269.7 1398.2 268.7L1399.1 260.3 1403.6 265.7C1404.2 266.5 1405.2 266.4 1405.8 266.1 1406.6 265.5 1406.5 264.5 1406.3 263.9L1400 255.8 1401.4 244.3 1415.8 262.6C1416.5 263.3 1417.5 263.2 1418.1 263 1418.6 261.7 1418.8 260.6 1418.1 259.8Z" fill="rgba(112, 11, 151, 0.3)"></path><path d="M99.7 230.1L101.2 244 93.3 240.9C92.5 240.5 91.3 240.9 90.6 242 90.5 243.1 90.9 244.3 92 244.4L101.7 248.6 103.4 259.5 83.1 250.7C82 250.5 80.8 250.9 80.4 251.7 79.9 253.1 80.3 254.3 81.5 254.4L103.9 264.1 105.9 280.7 89.2 271.2 93.7 289.9 78.3 283.4 75.1 259.3C75.4 259 75.2 258.7 74.9 258.4 74.4 257.7 73.6 257.3 72.8 257.5 71.9 257.7 71.2 258.7 71 259.8L74 281.7 64 277.2 62.6 266.7C62.7 266.1 62.5 265.8 62.2 265.5 62 265.2 61.2 264.8 60.3 264.9 59.4 265.1 58.7 266.1 58.9 267L59.7 275.4 46.7 270.2C45.7 269.5 44.7 270.2 44 271.3 43.6 272.1 44 273.3 45.3 273.7L58 279.2 51.3 284.3C50.4 285 50.5 286.5 50.9 287.1 51.7 288.1 52.8 288.2 53.7 287.5L62.4 281 72.3 285.5 55.1 298.5C54.1 299.3 54 300.4 54.7 301.3 55.2 302 56.5 302.5 57.5 301.7L76.7 287.2 92.1 293.6 75.9 303.4 94 308.8 80.6 318.9 58.4 309.6C57.1 309.1 56.1 309.8 55.7 310.6 55.3 311.4 55.7 312.6 56.8 313.3L77.1 321.6 68.4 328.1 58.4 324.2C57.4 323.4 56.2 323.8 55.7 325.2 55.3 326 55.7 327.2 57.1 327.7L64.6 331 53.4 339.5C52.5 340.2 52.3 341.3 53 342.3S54.9 343.4 55.8 342.7L67 334.2 68.2 342.4C68.3 343.8 69.3 344.5 70.2 344.4 71.6 344.3 72.4 343.2 71.9 342L70.9 331.3 79.5 324.8 81.9 346.6C82.3 347.8 83.4 348.5 84.2 348.3 85.7 348.2 86.4 347.2 86 346L83 322.1 96.4 312 96.7 330.9 110.4 317.9 112.4 334.5 93.3 349C92.3 349.7 92.4 351.1 92.9 351.8 93.6 352.7 94.8 352.9 95.7 352.2L113.3 338.9 114.6 349.9 106 356.5C105 357.2 104.9 358.3 105.6 359.3 106.1 359.9 107.4 360.4 108.4 359.6L115.1 354.6 116.9 368.3C117 369.7 118.1 370.4 119.3 370 120.1 369.8 121.1 369.1 120.7 367.9L119.2 354 127.1 357.1C127.9 357.5 129.1 357.1 129.5 356.3 129.9 355.5 129.7 354.6 129.4 354.3 129.2 353.9 129 353.6 128.4 353.5L118.7 349.3 117 338.5 137.3 347.3C138.4 347.5 139.6 347.1 140 346.3 140.4 345.5 140.2 344.6 139.7 344 139.5 343.6 139.5 343.6 138.9 343.6L116.5 333.9 114.5 317.3 131.2 326.8 126.7 308.1 142.1 314.5 145.3 338.7C145.5 339.6 146.2 340.6 147.6 340.5 148.5 340.3 149.2 339.3 149.4 338.1L146.4 316.3 156.4 320.8 157.8 331.3C157.6 332.4 158.7 333.1 160.1 333 161 332.9 161.7 331.8 161.9 330.7L160.7 322.5 173.7 327.8C174.7 328.5 175.7 327.8 176.4 326.7 176.5 326.2 176.3 325.3 176.1 325 175.9 324.6 175.6 324.3 175 324.2L162.4 318.8 169.1 313.7C170 313 169.9 311.5 169.5 310.9L169.5 310.9C168.7 309.9 167.6 309.8 166.7 310.5L158 317 148.1 312.5 165.3 299.5C166.3 298.7 166.4 297.6 165.7 296.6S163.9 295.5 162.9 296.3L143.7 310.8 128.3 304.4 144.5 294.6 126.4 289.2 139.8 279.1 162 288.4C163.3 288.9 164.3 288.2 164.7 287.4 165.1 286.6 164.7 285.4 163.6 284.6L143.7 276.2 152 269.9 162 273.8C163 274.6 164.2 274.1 164.7 272.8 165.1 272 164.7 270.8 163.7 270.1L155.8 267 167 258.5C167.9 257.8 168.1 256.7 167.4 255.7S165.5 254.6 164.5 255.3L153.4 263.8 152.2 255.6C152.3 255.1 152 254.7 151.8 254.4 151.3 253.8 150.8 253.7 150.2 253.6 148.8 253.7 148 254.8 148.5 256L149.5 266.7 140.9 273.2 138.5 251.4C138.3 251.1 138 250.8 137.8 250.5 137.3 249.8 136.7 249.8 136.2 249.7 134.7 249.8 134 250.8 134.4 252L137.4 275.9 124 286 123.7 267.1 109.9 280.1 107.9 263.5 127.1 249C128.1 248.3 128 246.8 127.5 246.2 126.8 245.2 125.6 245.1 124.7 245.8L107.4 258.9 105.8 248.1 114.4 241.5C115.4 240.8 115.5 239.7 114.8 238.7S113 237.6 112 238.3L105.3 243.4 103.5 229.7C103.5 229.2 103.3 228.8 103.1 228.5 102.8 228.2 102 227.8 101.1 228 100.3 228.1 99.3 228.9 99.7 230.1ZM119.9 276L120.1 291.5 134.9 295.8 121.5 304 125.2 318.8 111.6 311.5 100.5 322 100.3 306.5 85.5 302.2 98.6 294.2 95.2 279.2 108.5 286.7 119.9 276Z" fill="rgba(112, 11, 151, 0.3)"></path><path d="M299.3 468.2L316 478.5 305.8 484.5C304.7 485.1 304.1 486.8 304.7 488.4 305.8 489.6 307.5 490.2 308.6 489.1L321.6 481.9 334.9 489.4 307.8 504.2C306.7 505.3 306.1 507 306.6 508.1 307.7 509.8 309.4 510.4 310.6 509.3L340.5 492.9 360.5 504.9 335.7 515.2 360.2 526.2 339.9 537.7 310.4 520.5C310.4 519.9 309.9 519.9 309.3 519.9 308.2 519.9 307 520.4 306.5 521.6 305.9 522.7 306.4 524.4 307.5 525.5L334.2 541 320.7 548.1 307.9 540.6C307.3 540.1 306.8 540.1 306.2 540.1 305.7 540.1 304.5 540.6 303.9 541.7 303.4 542.8 303.9 544.5 305 545.1L315 551.4 298.1 561.3C296.4 561.8 296.4 563.5 296.9 565.2 297.4 566.3 299.1 566.9 300.8 565.8L317.8 556.5 317.6 568.3C317.6 569.9 319.2 571.1 320.4 571.1 322.1 571.1 323.2 570 323.2 568.3L323.4 553.2 337 546.1 336.6 576.4C336.5 578 337.6 579.2 339.3 579.2 340.5 579.2 342.1 578.1 342.2 576.4L342.6 542.8 363 531.3 359.8 557.6 381.3 542.2 381 565.8 351.6 582.2C349.9 583.3 349.9 585 350.5 586.1 351 587.2 352.7 587.8 354.4 587.3L380.9 571.9 380.7 587.1 367.7 594.7C366 595.3 365.4 596.9 366.5 598.6 367.1 599.8 368.8 600.4 370.5 599.3L380.6 593.8 380.4 613.4C380.3 615.1 381.4 616.2 383.1 616.3S385.9 615.2 386 613.5L386.2 593.9 396.3 599.6C397.9 600.8 399.6 600.2 400.2 599.1 401.3 597.4 400.8 595.7 399.1 595.2L386.3 587.1 386.5 572 412.7 588.1C414.4 588.6 416 588.1 416.6 587 417.8 585.3 417.2 583.6 415.5 583L386.6 565.8 386.9 542.3 408 558.3 405.6 531.9 425.6 543.9 425.2 577.6C425.1 579.3 426.8 580.4 427.9 580.4 429.6 580.4 430.7 579.3 430.8 577.6L431.2 546.8 444.5 554.8 444.3 570C444.3 571.7 445.4 572.8 447.1 572.8 448.2 572.8 449.9 571.7 449.9 570.1L450.1 558.3 466.8 568C468.5 569.2 470.1 568.6 470.7 567 471.3 565.9 471.3 564.2 469.7 563.6L453 553.3 463.1 547.2C464.3 546.7 464.9 545 464.3 543.9 463.8 542.8 462.7 542.2 462.1 542.2 461.5 542.2 461 542.2 460.4 542.7L447.4 549.8 434 542.4 461.2 527.6C462.3 526.5 462.9 524.8 462.3 523.7 461.8 522.5 460.7 522 459.6 522 459 521.9 459 521.9 458.4 522.5L428.5 538.9 408.5 526.9 433.3 516.6 408.8 505.6 429.1 494.1 458.6 511.3C459.7 511.9 461.4 511.9 462.5 510.2 463.1 509.1 462.6 507.4 461.5 506.3L434.8 490.8 448.3 483.7 461.1 491.1C462.2 492.3 463.9 491.7 465 490.1 465.6 488.9 465.1 487.3 464 486.1L454 480.4 470.9 470.5C472.6 470 472.6 468.3 472.1 466.6 471.5 466 470.4 465.5 469.9 465.5 469.3 465.4 468.7 465.4 468.2 466L451.2 475.3 451.4 463.5C451.4 461.8 449.7 460.7 448.6 460.7L448.6 460.7C446.9 460.7 445.8 461.8 445.8 463.4L445.6 478.6 432 485.7 432.4 455.4C432.5 453.7 431.3 452.6 429.7 452.6S426.8 453.7 426.8 455.3L426.4 489 406 500.5 409.2 474.2 387.7 489.6 388 466 417.4 449.6C419.1 448.5 419.1 446.8 418.5 445.7 418 444.6 416.3 444 414.6 444.5L388.1 459.3 388.3 444.7 401.3 437C403 436.5 403.5 434.8 402.4 433.1 401.9 432 400.2 431.4 398.5 432L388.4 438 388.6 418.4C388.7 416.7 387.5 415.5 385.9 415.5S383 416.6 383 418.3L382.8 437.9 372.7 432.2C372.2 431.6 371.6 431.6 371.1 431.6 369.9 431.6 369.4 432.1 368.8 432.7 367.7 434.3 368.2 436 369.9 436.6L382.7 444.6 382.5 459.8 356.3 443.7C355.8 443.7 355.2 443.7 354.6 443.7 353.5 443.7 352.9 444.2 352.4 444.8 351.2 446.5 351.8 448.1 353.4 448.7L382.4 465.9 382.1 489.5 361 473.5 363.4 499.9 343.4 487.8 343.8 454.2C343.9 452.5 342.2 451.4 341.1 451.4 339.4 451.3 338.3 452.4 338.2 454.1L337.8 484.4 324.5 476.9 324.7 461.8C324.7 460.1 323.6 459 321.9 459S319.1 460 319.1 461.7L318.9 473.5 302.2 463.7C301.7 463.2 301.1 463.2 300.5 463.1 300 463.1 298.8 463.7 298.3 464.8 297.7 465.9 297.7 467.6 299.3 468.2ZM367.5 485.4L384.7 498.5 402.3 485.8 399.8 507.7 419.3 516.4 399.5 525.1 401.5 546.4 384.3 533.3 366.7 545.9 369.2 524.7 349.7 515.4 369.5 507.3 367.5 485.4Z" fill="rgba(112, 11, 151, 0.3)"></path><path d="M638.9 193.7L658.6 159.1 693 149.9 683.8 184.2 649.2 203.9C649.2 203.9 648.8 204.3 648.8 204.3 648.1 205 648.1 206.3 648.5 207.3 649.2 208.7 650.9 209 651.9 208L682.1 190.7 677.7 207.3 664.5 215.1C664.5 215.1 664.1 215.5 664.1 215.5 663.4 216.2 663.4 217.5 663.8 218.5 664.5 219.9 666.2 220.2 667.2 219.2L676.3 214.1 673 226.4C672.6 227.4 673.6 229.1 674.7 229.4 676 230.1 677.4 228.7 677.7 227.7L681.1 215.5 686.2 224.6C686.9 226 688.6 226.3 689.6 225.3 691 224.6 691.3 222.9 690.3 221.9L682.5 208.7 687.2 192.4 704.6 222.6C705.2 224 706.9 224.3 708 223.3 709.3 222.6 709.7 220.9 708.6 219.9L688.9 185.2 698.1 150.9 723.6 176.4 723.6 216.5C723.6 217.8 724.6 218.8 726 218.8 727.3 218.8 728.4 217.8 728.4 216.5L728.3 181.1 740.6 193.3 740.6 208.3C740.6 209.7 741.6 210.7 743 210.7 744.3 210.7 745.3 209.7 745.3 208.3L745.3 198.1 754.9 207.6C755.5 209 757.2 208.6 758.3 207.6 759.3 206.6 759.3 205.2 758.3 204.2L749.4 195.4 759.6 195.4C761 195.4 762 194.4 762 193S761 190.6 759.6 190.6L744.7 190.6 732.4 178.4 767.8 178.4C769.1 178.4 770.1 177.4 770.1 176 770.1 174.6 769.1 173.6 767.8 173.6L727.6 173.6 702.5 148.5 736.8 139.3 770.5 158.7C771.8 159.3 773.2 158.7 774.2 157.6 774.9 156.3 774.2 154.9 773.2 153.9L742.9 136.6 759.6 132.2 772.8 140C774.2 140.7 775.6 140 776.6 138.9 777.3 137.6 776.6 136.2 775.9 135.6L766.7 130.5 778.9 127.1C780 126.7 781.3 125.4 780.6 124 780 122.6 778.9 121.6 777.6 122.3L765.3 125.7 770.4 116.5C771.1 115.2 770.4 113.8 769.8 113.1 768.7 112.8 767.4 112.8 766.7 113.5 766.7 113.5 766.4 113.8 766.4 113.8L758.6 127.1 741.9 131.5 759.2 101.2C759.9 99.9 759.2 98.5 758.5 97.8 757.5 97.5 756.2 97.5 755.5 98.2 755.5 98.2 755.1 98.5 755.1 98.5L735.4 133.2 701.1 142.4 710.3 108.1 744.9 88.3C746.3 87.6 746.6 85.9 745.6 84.9 744.9 83.6 743.2 83.2 742.2 84.2L712 101.6 716.4 84.9 729.6 77.1C731 76.4 731.3 74.7 730.3 73.7 729.6 72.4 727.9 72 726.9 73L717.7 78.1 721.1 65.9C721.5 64.9 720.5 63.2 719.4 62.8 718.4 62.5 717.4 62.8 716.7 63.5 716.4 63.9 716 64.2 716 64.9L712.6 77.1 707.5 68C706.9 66.6 705.2 66.3 704.1 67.3 704.1 67.3 703.8 67.6 703.8 67.6 703.1 68.3 703.1 69.7 703.5 70.7L711.3 83.9 706.9 100.6 689.5 70.3C688.8 69 687.1 68.6 686.1 69.7 686.1 69.7 685.8 70 685.8 70 685.1 70.7 685.1 72 685.4 73.1L705.2 107.7 696 142.1 670.9 116.9 670.8 76.8C670.8 75.4 669.8 74.4 668.5 74.4 667.1 74.4 666.1 75.4 666.1 76.8L665.8 111.8 653.5 99.6 653.5 84.6C653.5 83.3 652.5 82.3 651.1 82.3S648.7 83.3 648.7 84.6L648.8 94.8 639.9 86C638.9 85 637.5 85 636.5 86 635.5 87 635.5 88.4 636.5 89.4L645.4 98.2 635.2 98.2C634.5 98.2 633.8 98.2 633.1 98.9S632.4 100.3 632.4 101C632.4 102.3 633.5 103.3 634.8 103.3L649.8 103.3 662 115.6 626.7 115.6C626 115.6 625.3 115.6 624.6 116.3 624.3 116.6 624 117.6 624 118.3 624 119.7 625 120.7 626.3 120.7L666.4 120.7 691.6 145.8 657.3 155 622.6 135.3C621.6 135 620.2 135 619.5 135.6 619.5 135.6 619.2 136 619.2 136 618.5 137.3 619.2 138.7 619.9 139.4L650.1 156.7 633.5 161.1 620.2 153.3C619.2 153 617.9 153 617.2 153.6 617.2 153.6 616.8 154 616.8 154 616.2 155.3 616.8 156.7 617.5 157.4L626.7 162.5 614.5 165.9C614.1 166.2 613.4 166.2 613.1 166.6 612.4 167.2 612.1 168.3 612.4 169.3 613.1 170.6 614.1 171.7 615.5 171L627.7 167.6 622.6 176.8C621.9 178.1 622.6 179.5 623.3 180.2 624.7 180.8 626 180.2 626.7 179.5L634.5 166.2 651.2 161.8 633.8 192C633.2 193.4 633.9 194.8 634.5 195.4 636.6 195.4 638.3 195.1 638.9 193.7Z" fill="rgba(112, 11, 151, 0.3)"></path><path d="M46.6 532.9L55.7 528.7 55.3 535.5C55.2 536.2 55.8 537 56.8 537.3 57.7 537.1 58.5 536.5 58.6 535.8L59.3 526.9 67.9 523.1 66.2 541.1C66.2 542.3 66.8 543.1 67.7 542.9 68.6 543.2 69.5 542.6 69.5 541.5L71.3 521.6 78.9 518 94.9 529.2 94.4 536.6 75 545.3C74.8 545.6 74.6 545.9 74.4 546.1 74.3 546.4 74.2 547.1 74.2 547.5 74.7 548.6 75.6 548.9 76.4 548.3L94.1 540.4 93.2 549.5 84.3 553.8C84 553.6 83.9 553.9 83.7 554.2 83.3 554.7 83.2 555.4 83.5 556 83.9 556.7 84.9 556.9 85.8 556.8L92.9 553.2 92 564.7C91.9 565.4 92.5 566.2 93.4 566.5 94.3 566.3 95.2 565.7 95.3 565L96.1 554.3 101.6 558.1C102.4 558.7 103.5 558.3 103.9 557.7 104.4 556.9 104.4 555.8 103.7 555.2L96.6 550.3 97.5 541.1 112.2 551.4C113 552 113.9 551.8 114.4 551 115 550.3 114.8 549.4 114 548.8L97.8 537.4 98.2 529.5 116.1 521.3 122.1 525.5 120.4 545.8C120.1 546.8 121 547.8 121.9 547.7 122.9 548 123.4 547.2 123.7 546.2L125.3 527.7 132.9 533.1 132 542.2C131.9 542.9 132.7 543.9 133.4 544S135.1 543.3 135.4 542.3L136 535.3 145.2 541.7C146 542.3 147.1 541.8 147.6 541.1 148 540.5 148 539.4 147.2 538.8L138.1 532.4 144.6 529.2C145.3 528.8 145.8 528 145.4 527 145 526.3 143.8 525.9 143.2 526.2L134.9 530.2 127.3 524.8 144.1 517.1C144.9 516.5 145.5 515.7 145 514.6 144.7 514 143.5 513.5 142.8 513.8L124.1 522.6 118.1 518.4 119.7 498.8 127 495.7 143.3 507.1C144 507.6 144.9 507.5 145.5 506.7 146 505.9 146.1 504.7 145.3 504.2L130.6 493.9 138.9 489.9 145.9 494.9C146.7 495.4 147.6 495.3 148.2 494.5 148.7 493.7 148.6 492.8 147.8 492.3L142.3 488.4 152.1 483.9C152.7 483.6 153.2 482.3 152.8 481.7 152.2 480.9 151.4 480.3 150.6 480.9L140.4 485.5 141.1 477.8C140.9 476.9 140.3 476.1 139.6 476 138.9 475.9 138.3 476.2 137.9 476.7 137.9 476.7 137.7 477 137.8 477.4L136.8 487.3 128.5 491.3 129.9 471.9C130.2 471 129.6 470.1 128.5 470.1 128 470.2 127.6 470.3 127.2 470.8 127 471.1 126.8 471.3 126.7 471.6L125.1 492.8 118.3 495.8 102.3 484.6 103.1 476.2 121.1 467.7C122.2 467.3 122.5 466.3 121.9 465.5 121.7 464.6 120.8 464.3 119.7 464.8L103.3 472.5 104 463.2 112.1 459.4C112.7 459.1 113 458.1 112.9 457.2 112.2 456.4 111.5 455.9 110.6 456.5L104.5 459.2 105.2 449.1C105.5 448.2 104.7 447.6 103.7 447.3 103.3 447.4 102.7 447.7 102.3 448.3 102.3 448.3 102.1 448.5 101.9 448.8L101.1 459.5 94.5 454.9C94 454.6 92.8 454.5 92.3 455.3 91.7 456.1 92.1 457.2 92.7 457.6L100.8 463.3 100.1 472.6 84.1 461.4C83.3 460.8 82.3 461.2 81.7 462S81.3 463.7 82.1 464.2L99.7 476.6 99 484.3 81.1 492.5 74.3 487.7 76.2 467.1C76 466.2 75.4 465.4 74.4 465.1 74 465.2 73.4 465.6 73 466.1 72.8 466.3 72.6 466.6 72.7 467.1L71.1 485.5 63.5 480.2 64.2 470.9C64.3 470.1 63.7 469.3 62.7 469 61.8 469.2 61 469.8 60.9 470.5L60.4 478 52 472.1C51.4 471.7 50.1 472 49.7 472.5 49.2 473.3 49.4 474.6 49.9 475L58.3 480.9 51.7 483.6C51.5 483.9 51.3 484.2 51.2 484.4 50.8 484.9 50.7 485.7 50.8 486.1 51.4 486.9 52.3 487.2 53.2 487.1L61.5 483.1 69.1 488.4 52.3 496.2C51.2 496.6 50.9 497.6 51.3 498.2 51.7 499.3 52.7 499.6 53.6 499.4L72.3 490.6 79.1 495.4 77.5 515 70.5 518.3 52.9 506C52.1 505.4 51.2 505.6 50.6 506.4 50.1 507.2 50.3 508.1 51 508.6L67 519.8 58.5 523.6 50.4 517.9C49.9 517.6 48.5 517.8 48 518.6 47.4 519.4 47.8 520.4 48.4 520.8L54.9 525.4 45.1 529.9C44.9 530.2 44.9 530.2 44.8 530.4 44.4 530.9 44.3 531.6 44.4 532.1 45 532.9 45.9 533.2 46.6 532.9ZM82.2 497.6L82.5 495.5 84.3 494.7 98.7 488 100.4 487.2 102 488.4 114.9 497.4 116.4 498.5 116.3 500.3 115 516.2 114.8 518.1 112.9 519.1 98.7 525.5 96.8 526.5 95.2 525.4 82.3 516.4 80.8 515.3 81.1 513.2 82.2 497.6Z" fill="rgba(112, 11, 151, 0.3)"></path><path d="M918.9 130.9L948.6 115.9 976.7 125.3 954.5 144.9 921.3 142.7C921.3 142.7 920.9 142.8 920.9 142.8 920.1 142.9 919.5 143.9 919.3 144.7 919.1 146 920.2 147 921.3 146.8L950.3 148.6 939.6 158.2 926.8 157.5C926.8 157.5 926.4 157.6 926.4 157.6 925.6 157.8 925 158.7 924.8 159.6 924.6 160.8 925.6 161.8 926.8 161.6L935.5 162.3 927.5 169.2C926.8 169.8 926.8 171.4 927.3 172.1 927.9 173.2 929.5 172.9 930.2 172.4L938.2 165.4 937.5 174.1C937.4 175.4 938.4 176.4 939.6 176.2 940.8 176.3 941.8 175.3 941.6 174.1L942.3 161.3 953.1 152.2 951.2 181.2C951.1 182.4 952.1 183.4 953.3 183.2 954.5 183.4 955.5 182.3 955.3 181.2L957.6 148 979.7 128.4 985.7 157.8 967.3 185.7C966.6 186.6 966.9 187.8 967.8 188.4 968.8 189 969.9 188.8 970.6 187.9L986.8 163.3 989.7 177.4 982.8 187.8C982.2 188.8 982.4 189.9 983.4 190.6 984.3 191.2 985.5 191 986.1 190L990.8 182.9 993 193.9C992.9 195.2 994.2 195.7 995.4 195.5 996.6 195.2 997.2 194.3 997 193.1L994.9 182.9 1002 187.6C1002.9 188.2 1004.1 188 1004.7 187S1005.1 184.9 1004.2 184.3L993.8 177.4 990.9 163.3 1015.5 179.6C1016.4 180.2 1017.6 179.9 1018.2 179 1018.8 178 1018.6 176.9 1017.7 176.2L989.8 157.8 983.9 128.7 1012 138.2 1026.4 167.1C1027.1 168.2 1028.3 168.4 1029.5 168.1 1030.6 167.5 1030.7 166.2 1030.5 165L1017.5 139.1 1031.1 143.7 1036.7 155.2C1037.3 156.3 1038.6 156.5 1039.7 156.2 1040.8 155.6 1041 154.3 1040.8 153.5L1036.8 145.8 1046.9 149.1C1047.7 149.3 1049.3 149 1049.5 147.7 1049.6 146.4 1049.4 145.3 1048.1 145.1L1038.1 141.9 1045.8 137.8C1046.9 137.2 1047.1 135.9 1046.9 135.1 1046.4 134.4 1045.4 133.8 1044.6 134 1044.6 134 1044.2 134.1 1044.2 134.1L1032.7 139.7 1019.1 135.1 1045.1 122C1046.2 121.4 1046.3 120.1 1046.2 119.4 1045.6 118.7 1044.7 118 1043.9 118.2 1043.9 118.2 1043.5 118.3 1043.5 118.3L1013.8 133.3 985.8 123.9 1007.9 104.2 1041.1 106.5C1042.3 106.6 1043.4 105.6 1043.1 104.4 1043.3 103.2 1042.3 102.2 1041.1 102.4L1012.1 100.5 1022.8 91 1035.6 91.7C1036.9 91.8 1037.9 90.8 1037.7 89.6 1037.8 88.4 1036.8 87.3 1035.6 87.6L1026.9 86.9 1034.9 80C1035.6 79.4 1035.7 77.8 1035.1 77.1 1034.5 76.3 1033.7 76.1 1032.9 76.3 1032.5 76.4 1032.1 76.4 1031.8 76.9L1023.8 83.8 1024.5 75.1C1024.6 73.9 1023.6 72.8 1022.4 73.1 1022.4 73.1 1022 73.2 1022 73.2 1021.3 73.3 1020.6 74.3 1020.4 75.1L1019.7 87.9 1009 97.5 1010.9 68.5C1011 67.2 1010 66.2 1008.8 66.5 1008.8 66.5 1008.4 66.5 1008.4 66.5 1007.7 66.7 1007 67.6 1006.8 68.5L1004.5 101.7 982.4 121.3 976.5 92.2 994.9 64.4C995.5 63.4 995.3 62.3 994.4 61.6 993.4 61 992.2 61.2 991.6 62.2L975.3 86.4 972.4 72.2 979.3 61.8C979.9 60.9 979.7 59.7 978.7 59.1S976.6 58.7 976 59.6L971.3 66.7 969.2 56.5C969 55.3 968 54.7 966.8 55 965.7 55.2 965 56.1 965.3 57.3L967.4 67.5 960.3 62.8C959.8 62.5 959.3 62.2 958.5 62.4S957.4 63 957.1 63.5C956.5 64.4 956.7 65.6 957.7 66.2L968.1 73.1 971 87.2 946.4 71C945.9 70.7 945.4 70.3 944.7 70.5 944.3 70.6 943.6 71.1 943.3 71.6 942.6 72.6 942.9 73.7 943.8 74.4L971.7 92.8 977.6 121.9 949.5 112.4 934.5 82.8C933.9 82.1 933 81.5 932.2 81.6 932.2 81.6 931.8 81.7 931.8 81.7 930.7 82.3 930.6 83.6 930.7 84.4L943.8 110.3 930.2 105.7 924.5 94.2C924 93.5 923.1 92.9 922.3 93 922.3 93 921.9 93.1 921.9 93.1 920.8 93.8 920.6 95 920.8 95.8L924.8 103.6 914.7 100.3C914.4 100.4 913.9 100.1 913.5 100.1 912.7 100.3 912 100.8 911.8 101.7 911.6 103 911.9 104.1 913.1 104.3L923.2 107.6 915.4 111.6C914.3 112.2 914.2 113.5 914.3 114.3 915 115.4 916.2 115.5 917 115.4L928.5 109.8 942.1 114.3 916.2 127.4C915.1 128 914.9 129.3 915.1 130.1 916.5 131 917.8 131.5 918.9 130.9Z" fill="rgba(112, 11, 151, 0.3)"></path><path d="M1347 396.7L1356.1 403.3 1350 406.3C1349.4 406.6 1349 407.5 1349.2 408.5 1349.8 409.2 1350.7 409.6 1351.4 409L1359.1 405.5 1366.4 410.3 1350.3 417.6C1349.6 418.2 1349.2 419.1 1349.5 419.8 1350 420.8 1350.9 421.2 1351.6 420.6L1369.4 412.5 1380.3 420.3 1365.7 425.1 1379.2 432.4 1367.1 438.1 1351.1 427C1351.1 426.7 1350.8 426.6 1350.5 426.6 1349.8 426.6 1349.2 426.8 1348.8 427.4 1348.4 428 1348.6 429 1349.2 429.7L1363.8 439.7 1355.7 443.2 1348.8 438.4C1348.5 438 1348.2 438 1347.8 438 1347.5 437.9 1346.8 438.2 1346.5 438.8 1346.1 439.4 1346.3 440.4 1346.9 440.8L1352.4 444.8 1342.3 449.7C1341.3 449.9 1341.2 450.9 1341.4 451.9 1341.7 452.5 1342.6 452.9 1343.6 452.4L1353.7 447.8 1353.1 454.5C1353 455.5 1353.9 456.2 1354.6 456.3 1355.5 456.3 1356.2 455.8 1356.3 454.8L1357.1 446.2 1365.1 442.7 1363.6 460C1363.5 460.9 1364.1 461.6 1365 461.7 1365.6 461.8 1366.7 461.2 1366.7 460.2L1368.5 441.1 1380.6 435.4 1377.6 450.3 1390.5 442.4 1389.3 455.8 1371.9 463.9C1370.9 464.5 1370.8 465.4 1371 466.1 1371.3 466.8 1372.2 467.2 1373.2 466.9L1389 459.4 1388.3 468 1380.5 471.8C1379.5 472 1379.1 472.9 1379.7 474 1379.9 474.6 1380.9 475 1381.9 474.5L1387.9 471.8 1386.9 483C1386.8 483.9 1387.4 484.6 1388.4 484.7S1390 484.2 1390.1 483.3L1391.1 472.1 1396.6 475.8C1397.5 476.5 1398.4 476.3 1398.8 475.7 1399.5 474.8 1399.3 473.8 1398.4 473.4L1391.4 468.3 1392.2 459.6 1406.4 469.9C1407.3 470.3 1408.3 470.1 1408.7 469.5 1409.4 468.6 1409.2 467.6 1408.3 467.2L1392.5 456.1 1393.7 442.7 1405.1 452.7 1404.8 437.6 1415.7 445.3 1414 464.5C1413.9 465.4 1414.8 466.2 1415.4 466.2 1416.4 466.3 1417.1 465.7 1417.2 464.8L1418.8 447.2 1426 452.4 1425.2 461C1425.1 462 1425.7 462.6 1426.7 462.7 1427.3 462.8 1428.3 462.2 1428.4 461.3L1429 454.6 1438.1 460.9C1439 461.6 1440 461.4 1440.4 460.4 1440.8 459.8 1440.9 458.9 1439.9 458.5L1430.9 451.8 1436.9 448.9C1437.6 448.6 1438 447.7 1437.8 447 1437.5 446.3 1436.9 446 1436.6 445.9 1436.2 445.9 1435.9 445.9 1435.6 446.2L1427.9 449.6 1420.6 444.8 1436.7 437.6C1437.4 437 1437.8 436.1 1437.5 435.4 1437.2 434.7 1436.6 434.3 1436 434.3 1435.7 434.3 1435.7 434.3 1435.3 434.6L1417.6 442.6 1406.7 434.9 1421.3 430.1 1407.8 422.7 1419.8 417.1 1435.9 428.2C1436.5 428.5 1437.5 428.6 1438.2 427.7 1438.6 427.1 1438.3 426.1 1437.8 425.4L1423.2 415.4 1431.2 412 1438.2 416.8C1438.8 417.5 1439.8 417.3 1440.5 416.4 1440.9 415.7 1440.6 414.8 1440.1 414.1L1434.6 410.4 1444.7 405.5C1445.7 405.2 1445.8 404.3 1445.5 403.3 1445.2 402.9 1444.6 402.6 1444.3 402.5 1444 402.5 1443.7 402.5 1443.3 402.8L1433.3 407.3 1433.9 400.6C1434 399.7 1433.1 399 1432.4 398.9L1432.4 398.9C1431.5 398.8 1430.8 399.4 1430.7 400.4L1429.9 409 1421.9 412.4 1423.4 395.2C1423.5 394.2 1422.9 393.5 1422 393.5S1420.3 394 1420.2 394.9L1418.5 414.1 1406.4 419.7 1409.4 404.9 1396.4 412.7 1397.6 399.3 1415.1 391.2C1416.1 390.7 1416.2 389.7 1415.9 389.1 1415.7 388.4 1414.7 388 1413.8 388.2L1398 395.5 1398.7 387.2 1406.5 383.4C1407.5 383.1 1407.9 382.2 1407.3 381.2 1407 380.5 1406.1 380.1 1405.1 380.4L1399.1 383.4 1400.1 372.2C1400.2 371.2 1399.6 370.5 1398.6 370.4S1397 370.9 1396.9 371.9L1395.9 383.1 1390.4 379.4C1390.1 379 1389.8 379 1389.5 379 1388.8 378.9 1388.5 379.2 1388.2 379.5 1387.4 380.4 1387.7 381.4 1388.6 381.8L1395.5 386.9 1394.8 395.5 1380.6 385.2C1380.2 385.2 1379.9 385.2 1379.6 385.1 1379 385.1 1378.6 385.4 1378.3 385.7 1377.5 386.6 1377.8 387.6 1378.7 388L1394.4 399 1393.2 412.4 1381.9 402.4 1382.2 417.6 1371.3 409.8 1373 390.7C1373.1 389.7 1372.2 389 1371.5 388.9 1370.6 388.8 1369.9 389.4 1369.8 390.4L1368.3 407.6 1361 402.8 1361.7 394.2C1361.8 393.2 1361.2 392.5 1360.3 392.4S1358.6 392.9 1358.5 393.9L1357.9 400.6 1348.9 394.3C1348.6 393.9 1348.3 393.9 1347.9 393.9 1347.6 393.9 1346.9 394.1 1346.6 394.7 1346.2 395.3 1346.1 396.3 1347 396.7ZM1385.1 409.5L1394.4 417.7 1404.9 411.2 1402.5 423.6 1413.3 429.4 1401.6 433.5 1401.8 445.7 1392.6 437.5 1382 443.9 1384.4 431.9 1373.7 425.8 1385.3 422 1385.1 409.5Z" fill="rgba(112, 11, 151, 0.3)"></path></g><defs><mask id="SvgjsMask1058"><rect width="1442" height="562" fill="#ffffff"></rect></mask><filter id="SvgjsFilter1059"><feGaussianBlur stdDeviation="1"></feGaussianBlur></filter></defs></svg>